<svg width="233" height="233" viewBox="0 0 233 233" fill="none" xmlns="http://www.w3.org/2000/svg">
<g clip-path="url(#clip0_13_1003)">
<path d="M174.52 123.814C179.99 124.656 185.39 126.116 190.39 128.515C205.713 135.871 214.596 153.523 210.773 170.245C208.564 180.204 198.819 197.475 177.713 197.475C180.483 197.475 183.033 196.926 185.382 195.935C188.9 194.455 191.944 191.932 194.076 188.779C195.14 187.207 195.98 185.478 196.55 183.645C197.12 181.808 197.433 179.859 197.433 177.781C197.433 175.014 196.879 172.467 195.891 170.12C194.409 166.607 191.884 163.567 188.727 161.441C187.149 160.378 185.423 159.54 183.583 158.97C181.744 158.4 179.793 158.088 177.713 158.088H157.992V122.563C157.992 122.282 173.151 123.609 174.52 123.818V123.814Z" fill="#3F3AA9"/>
<path d="M49.4107 158.965C47.5716 159.535 45.8449 160.373 44.2668 161.436C41.1105 163.562 38.5847 166.606 37.103 170.116C36.1151 172.462 35.565 175.009 35.561 177.776C35.561 179.854 35.8742 181.803 36.4444 183.64C37.0146 185.478 37.8499 187.202 38.918 188.775C41.0463 191.927 44.0941 194.45 47.6117 195.93C49.9609 196.921 52.5107 197.466 55.2815 197.47C34.1756 197.47 24.4298 180.199 22.2212 170.24C18.3984 153.518 27.2809 135.866 42.6043 128.51C47.6037 126.111 53.0047 124.651 58.4739 123.809C59.8392 123.601 75.002 122.273 75.002 122.554V158.079H55.2815C53.2014 158.079 51.2539 158.392 49.4107 158.961V158.965Z" fill="#3F3AA9"/>
<path d="M157.998 158.084H75.0078V122.559H157.998V158.084Z" fill="#3F3AA9"/>
<path d="M58.4739 109.19C53.0047 108.348 47.6037 106.888 42.6043 104.489C27.2809 97.1335 18.3984 79.4813 22.2212 62.7597C24.4298 52.8005 34.1756 35.5293 55.2815 35.5293C52.5107 35.5293 49.9609 36.0788 47.6117 37.0695C44.0941 38.5496 41.0503 41.0725 38.918 44.2251C37.8539 45.7974 37.0146 47.5261 36.4444 49.3591C35.8742 51.1961 35.561 53.1454 35.561 55.2231C35.561 57.9906 36.1151 60.5376 37.103 62.884C38.5847 66.3976 41.1105 69.4379 44.2668 71.5637C45.8449 72.6266 47.5716 73.4649 49.4107 74.0345C51.2498 74.604 53.2014 74.9169 55.2815 74.9169H75.002V110.441C75.002 110.722 59.8432 109.395 58.4739 109.187V109.19Z" fill="#3F3AA9"/>
<path d="M190.39 104.485C185.39 106.884 179.99 108.345 174.52 109.187C173.155 109.395 157.992 110.722 157.992 110.441V74.9169H177.713C179.793 74.9169 181.74 74.604 183.583 74.0345C185.423 73.4649 187.149 72.6266 188.727 71.5637C191.884 69.4379 194.409 66.3936 195.891 62.884C196.879 60.5376 197.429 57.9906 197.433 55.2231C197.433 53.1454 197.12 51.1961 196.55 49.3591C195.98 47.5221 195.144 45.7974 194.076 44.2251C191.948 41.0725 188.9 38.5496 185.382 37.0695C183.033 36.0788 180.483 35.5334 177.713 35.5293C198.819 35.5293 208.564 52.8005 210.773 62.7597C214.596 79.4813 205.713 97.1335 190.39 104.489V104.485Z" fill="#3F3AA9"/>
<path d="M157.998 110.446H75.0078V74.9209H157.998V110.446Z" fill="#3F3AA9"/>
<path d="M208.64 101.003C204.231 103.98 199.356 106.342 194.148 107.958C188.944 109.579 183.402 110.445 177.716 110.445H159.51C163.377 110.249 173.424 109.358 174.524 109.19C179.993 108.348 185.394 106.888 190.393 104.489C205.717 97.1331 214.599 79.4809 210.776 62.7593C208.568 52.8001 198.822 35.533 177.716 35.533C174.941 35.533 172.396 36.0825 170.042 37.0732C166.529 38.5532 163.481 41.0761 161.349 44.2287C160.285 45.805 159.445 47.5297 158.875 49.3627C158.305 51.1997 157.992 53.1491 157.992 55.2267V177.777C157.992 179.855 158.305 181.804 158.875 183.641C159.445 185.478 160.285 187.203 161.349 188.775C163.477 191.928 166.525 194.451 170.042 195.931C172.392 196.921 174.941 197.471 177.716 197.471C198.822 197.471 208.568 180.204 210.776 170.244C214.599 153.523 205.717 135.871 190.393 128.515C185.394 126.116 179.993 124.656 174.524 123.814C173.424 123.645 163.381 122.751 159.51 122.558H177.716C183.402 122.558 188.944 123.425 194.148 125.045C199.356 126.662 204.231 129.028 208.64 132C217.454 137.952 224.437 146.347 228.65 156.282C231.457 162.896 233.003 170.208 233.003 177.781C233.003 183.461 232.135 188.996 230.513 194.198C228.891 199.4 226.526 204.265 223.55 208.669C217.591 217.473 209.186 224.452 199.244 228.656C192.618 231.456 185.302 233 177.716 233C172.03 233 166.489 232.133 161.28 230.513C156.072 228.897 151.197 226.534 146.792 223.558C137.978 217.606 130.991 209.211 126.783 199.276C123.976 192.658 122.43 185.35 122.43 177.777V55.2227C122.43 47.646 123.976 40.3381 126.783 33.724C130.991 23.7929 137.978 15.394 146.792 9.44177C151.201 6.46564 156.072 4.10318 161.28 2.48677C166.485 0.866346 172.026 0 177.716 0C185.302 0 192.618 1.54421 199.24 4.34786C209.182 8.55133 217.587 15.5304 223.546 24.3344C226.526 28.7384 228.891 33.6037 230.509 38.8059C232.127 44.0041 232.999 49.5392 232.999 55.2227C232.999 62.7994 231.453 70.1073 228.646 76.7214C224.437 86.6565 217.45 95.0514 208.636 101.003H208.64Z" fill="url(#paint0_linear_13_1003)"/>
<path d="M86.2105 223.558C81.8014 226.534 76.9305 228.897 71.7183 230.513C66.5141 232.133 60.9726 233 55.2825 233C47.6971 233 40.3807 231.456 33.759 228.652C23.8164 224.448 15.4118 217.469 9.45268 208.665C6.47312 204.261 4.10794 199.396 2.48966 194.194C0.867365 188.992 0 183.457 0 177.777C0 170.2 1.546 162.892 4.35289 156.278C8.56122 146.343 15.5483 137.948 24.3625 131.996C28.7716 129.02 33.6465 126.658 38.8548 125.041C44.0589 123.421 49.6004 122.554 55.2865 122.554H73.4931C69.6261 122.751 59.5792 123.641 58.4789 123.81C53.0097 124.652 47.6087 126.112 42.6093 128.511C27.2859 135.867 18.4034 153.519 22.2262 170.24C24.4348 180.2 34.1806 197.467 55.2865 197.467C58.0613 197.467 60.6071 196.917 62.9603 195.927C66.4739 194.447 69.5217 191.924 71.654 188.771C72.7181 187.195 73.5574 185.47 74.1276 183.637C74.6978 181.8 75.011 179.851 75.011 177.773V55.2186C75.011 53.1409 74.6978 51.1916 74.1276 49.3546C73.5574 47.5176 72.7181 45.7929 71.654 44.2206C69.5257 41.068 66.4779 38.5451 62.9603 37.065C60.6112 36.0743 58.0613 35.5248 55.2865 35.5248C34.1806 35.5248 24.4348 52.792 22.2262 62.7512C18.4034 79.4728 27.2859 97.125 42.6093 104.481C47.6087 106.88 53.0097 108.339 58.4789 109.182C59.5792 109.35 69.6221 110.245 73.4931 110.437H55.2865C49.6004 110.437 44.0589 109.571 38.8548 107.95C33.6465 106.334 28.7716 103.968 24.3625 100.995C15.5483 95.0433 8.56523 86.6484 4.35289 76.7133C1.546 70.1072 0 62.7993 0 55.2226C0 49.5431 0.867365 44.008 2.48966 38.8098C4.11195 33.6076 6.47713 28.7423 9.45268 24.3383C15.4118 15.5343 23.8164 8.55526 33.759 4.35178C40.3847 1.55214 47.7011 0.00390625 55.2825 0.00390625C60.9685 0.00390625 66.5101 0.870272 71.7183 2.4907C76.9265 4.10711 81.8014 6.46957 86.2105 9.44569C95.0247 15.3979 102.012 23.7928 106.22 33.7279C109.027 40.346 110.573 47.654 110.573 55.2266V177.777C110.573 185.354 109.027 192.662 106.22 199.276C102.012 209.207 95.0247 217.606 86.2105 223.558Z" fill="url(#paint1_linear_13_1003)"/>
</g>
<defs>
<linearGradient id="paint0_linear_13_1003" x1="177.716" y1="0" x2="177.716" y2="233" gradientUnits="userSpaceOnUse">
<stop stop-color="#3401FF"/>
<stop offset="1" stop-color="#FBA097"/>
</linearGradient>
<linearGradient id="paint1_linear_13_1003" x1="55.2865" y1="0.00390625" x2="55.2865" y2="233" gradientUnits="userSpaceOnUse">
<stop stop-color="#3401FF"/>
<stop offset="1" stop-color="#FBA097"/>
</linearGradient>
<clipPath id="clip0_13_1003">
<rect width="233" height="233" fill="white"/>
</clipPath>
</defs>
</svg>
