<svg width="152" height="129" viewBox="0 0 152 129" fill="none" xmlns="http://www.w3.org/2000/svg">
<mask id="path-1-outside-1_64_160" maskUnits="userSpaceOnUse" x="0" y="0" width="152" height="129" fill="black">
<rect fill="white" width="152" height="129"/>
<path fill-rule="evenodd" clip-rule="evenodd" d="M120.229 87.1562H130.369C141.745 87.1562 151 96.4111 151 107.784V121.776C151 125.441 148.023 128.421 144.364 128.421H106.237C102.578 128.421 99.6016 125.438 99.6016 121.776V107.784C99.6016 96.4111 108.854 87.1562 120.229 87.1562ZM144.364 123.739C145.422 123.739 146.315 122.843 146.315 121.779H146.318V107.787C146.318 98.9951 139.164 91.8408 130.372 91.8408H120.232C111.44 91.8408 104.286 98.9951 104.286 107.787V121.779C104.286 122.86 105.162 123.739 106.237 123.739H144.364ZM125.298 83.5293C116.849 83.5293 109.976 76.6562 109.976 68.207C109.976 59.752 116.849 52.876 125.298 52.876C133.753 52.876 140.629 59.7549 140.629 68.207C140.629 76.6562 133.75 83.5293 125.298 83.5293ZM125.295 78.8447C131.166 78.8447 135.941 74.0723 135.941 68.207C135.941 62.3359 131.166 57.5605 125.295 57.5605C119.43 57.5605 114.657 62.3359 114.657 68.207C114.657 74.0723 119.43 78.8447 125.295 78.8447ZM21.6367 87.1562H31.7764C43.1523 87.1562 52.4072 96.4111 52.4072 107.787V121.779C52.4072 125.444 49.4307 128.424 45.7715 128.424H7.64453C3.97949 128.424 1 125.441 1 121.779V107.787C1 96.4111 10.2578 87.1562 21.6367 87.1562ZM45.7715 123.739C46.8467 123.739 47.7227 122.86 47.7227 121.779V107.787C47.7227 98.9951 40.5684 91.8408 31.7764 91.8408H21.6367C12.8418 91.8408 5.68457 98.9951 5.68457 107.787V121.779C5.68457 122.86 6.56348 123.739 7.64453 123.739H45.7715ZM42.0361 68.207C42.0361 76.6562 35.1572 83.5293 26.7051 83.5293C18.2559 83.5293 11.3828 76.6533 11.3828 68.207C11.3828 59.752 18.2559 52.876 26.7051 52.876C35.1602 52.876 42.0361 59.7549 42.0361 68.207ZM37.3516 68.207C37.3516 62.3359 32.5762 57.5605 26.7051 57.5605C20.8369 57.5605 16.0645 62.3359 16.0674 68.207C16.0674 74.0723 20.8398 78.8447 26.7051 78.8447C32.5762 78.8447 37.3516 74.0723 37.3516 68.207ZM34.7002 34.7412H31.5039C27.9004 34.7412 24.9678 31.8115 24.9678 28.2051V7.53613C24.9678 3.93262 27.9004 1 31.5039 1H65.3535C68.957 1 71.8896 3.93262 71.8896 7.53613V28.2051C71.8896 31.8086 68.957 34.7412 65.3535 34.7412H48.0391L40.1611 40.9932C39.4434 41.5586 38.5908 41.8428 37.7383 41.8428C36.9531 41.8428 36.168 41.6025 35.4883 41.1191C34.0732 40.1143 33.4932 38.3359 34.041 36.6924L34.7002 34.7412ZM31.5039 5.68457C30.4844 5.68457 29.6523 6.51367 29.6523 7.53613H29.6465V28.2051C29.6465 29.2246 30.4756 30.0566 31.498 30.0566H35.7842C37.0498 30.0566 38.2041 30.6484 38.9512 31.6797C39.6982 32.7197 39.8916 34.0029 39.4814 35.21L39.3262 35.6728L45.335 30.9033C46.0352 30.3496 46.8701 30.0566 47.7549 30.0566H65.3535C66.373 30.0566 67.2051 29.2275 67.2051 28.2051V7.53613C67.2051 6.5166 66.376 5.68457 65.3535 5.68457H31.5039ZM103.97 41.7412H86.6553C83.0518 41.7412 80.1191 38.8115 80.1191 35.2051V14.5361C80.1191 10.9326 83.0518 8 86.6553 8H120.505C124.108 8 127.041 10.9326 127.041 14.5361V35.2051C127.041 38.8086 124.108 41.7412 120.505 41.7412H117.309L117.965 43.6836C118.516 45.3359 117.933 47.1143 116.521 48.1191C115.841 48.6025 115.056 48.8428 114.268 48.8428C113.421 48.8428 112.574 48.5644 111.859 48.0107L103.97 41.7412ZM86.6553 12.6846C85.6357 12.6846 84.8037 13.5137 84.8037 14.5361V35.2021C84.8037 36.2217 85.6328 37.0537 86.6553 37.0537H104.245C105.136 37.0537 105.974 37.3496 106.674 37.9033L112.683 42.6787L112.524 42.207C112.114 41.0029 112.305 39.7168 113.049 38.6855C113.802 37.6484 114.956 37.0566 116.219 37.0566H120.505C121.524 37.0566 122.356 36.2275 122.356 35.2051V14.5361C122.356 13.5166 121.527 12.6846 120.505 12.6846H86.6553ZM37.6328 10.7676C36.3408 10.7676 35.292 11.8164 35.292 13.1084C35.292 14.4033 36.3379 15.4521 37.6328 15.4492H59.2246C60.5166 15.4492 61.5654 14.4004 61.5654 13.1084C61.5654 11.8164 60.5195 10.7676 59.2246 10.7676H37.6328ZM37.6328 20.2949C36.3408 20.2949 35.292 21.3408 35.292 22.6357C35.292 23.9277 36.3379 24.9766 37.6328 24.9766H49.0352C50.3272 24.9766 51.376 23.9277 51.376 22.6357C51.376 21.3438 50.3272 20.2949 49.0352 20.2949H37.6328ZM92.7812 17.7676C91.4893 17.7676 90.4404 18.8164 90.4404 20.1084C90.4404 21.4033 91.4893 22.4521 92.7812 22.4492H114.373C115.665 22.4492 116.714 21.4004 116.714 20.1084C116.714 18.8164 115.668 17.7676 114.373 17.7676H92.7812ZM114.376 31.9766C115.668 31.9766 116.717 30.9307 116.717 29.6357C116.717 28.3408 115.668 27.292 114.376 27.2949H102.974C101.682 27.2949 100.633 28.3438 100.633 29.6357C100.633 30.9277 101.682 31.9766 102.974 31.9766H114.376ZM55.4219 107.837C55.4219 96.4844 64.6533 87.25 76 87.25C87.3525 87.25 96.5869 96.4844 96.5869 107.837C96.5869 119.189 87.3525 128.424 76 128.424C64.6533 128.424 55.4219 119.189 55.4219 107.837ZM60.1064 107.837C60.1064 116.605 67.2344 123.739 76 123.739C84.7686 123.739 91.9023 116.605 91.9023 107.837C91.9023 99.0684 84.7686 91.9346 76 91.9346C67.2373 91.9346 60.1064 99.0684 60.1064 107.837ZM85.5407 100.554C86.1351 100.892 86.5117 101.482 86.5708 102.166L86.9683 106.614C87.3006 110.297 84.9832 114.493 81.8031 115.964L77.4292 117.994C77.1486 118.123 76.852 118.188 76.5566 118.188C76.3745 118.188 76.1923 118.164 76.0151 118.114C75.8367 118.164 75.6545 118.19 75.4711 118.19C75.1758 118.19 74.8792 118.126 74.5974 117.995L70.5434 116.115C67.191 114.559 64.7161 110.456 65.0262 106.967L65.4582 102.162C65.5161 101.483 65.8902 100.895 66.4834 100.552C67.0815 100.212 67.7756 100.181 68.3922 100.466L72.0178 102.149L74.3155 98.8787C74.718 98.3175 75.3345 98 76.0114 98C76.6945 98 77.3123 98.32 77.7061 98.8775L80.0075 102.15L83.6306 100.468C84.2534 100.18 84.9487 100.212 85.5407 100.554ZM76.0126 99.9703C75.9757 99.9703 75.956 99.9753 75.924 100.02L73.1562 103.957C71.608 106.161 71.7015 110.014 73.3617 112.371L75.9302 116.028C75.956 116.065 75.9757 116.07 76.0126 116.07C76.0582 116.07 76.0717 116.063 76.0976 116.027L78.8703 112.083C80.4222 109.879 80.3287 106.025 78.6685 103.669L76.0963 100.012C76.0717 99.9777 76.057 99.9703 76.0126 99.9703ZM67.4224 102.336L66.9892 107.143C66.7504 109.823 68.7577 113.114 71.3717 114.326L72.7858 114.982L71.7483 113.506C69.853 110.815 69.5737 106.719 70.9594 103.83L67.5639 102.255C67.5295 102.239 67.5135 102.235 67.4667 102.262C67.4347 102.28 67.4261 102.294 67.4224 102.336ZM79.242 114.981L80.9736 114.177C83.4177 113.045 85.2638 109.663 85.0053 106.791L84.6078 102.338C84.6041 102.296 84.598 102.284 84.5598 102.262C84.518 102.239 84.5007 102.237 84.4614 102.256L81.0302 103.849C82.3938 106.819 82.2277 110.738 80.4813 113.218L79.242 114.981Z"/>
</mask>
<path fill-rule="evenodd" clip-rule="evenodd" d="M120.229 87.1562H130.369C141.745 87.1562 151 96.4111 151 107.784V121.776C151 125.441 148.023 128.421 144.364 128.421H106.237C102.578 128.421 99.6016 125.438 99.6016 121.776V107.784C99.6016 96.4111 108.854 87.1562 120.229 87.1562ZM144.364 123.739C145.422 123.739 146.315 122.843 146.315 121.779H146.318V107.787C146.318 98.9951 139.164 91.8408 130.372 91.8408H120.232C111.44 91.8408 104.286 98.9951 104.286 107.787V121.779C104.286 122.86 105.162 123.739 106.237 123.739H144.364ZM125.298 83.5293C116.849 83.5293 109.976 76.6562 109.976 68.207C109.976 59.752 116.849 52.876 125.298 52.876C133.753 52.876 140.629 59.7549 140.629 68.207C140.629 76.6562 133.75 83.5293 125.298 83.5293ZM125.295 78.8447C131.166 78.8447 135.941 74.0723 135.941 68.207C135.941 62.3359 131.166 57.5605 125.295 57.5605C119.43 57.5605 114.657 62.3359 114.657 68.207C114.657 74.0723 119.43 78.8447 125.295 78.8447ZM21.6367 87.1562H31.7764C43.1523 87.1562 52.4072 96.4111 52.4072 107.787V121.779C52.4072 125.444 49.4307 128.424 45.7715 128.424H7.64453C3.97949 128.424 1 125.441 1 121.779V107.787C1 96.4111 10.2578 87.1562 21.6367 87.1562ZM45.7715 123.739C46.8467 123.739 47.7227 122.86 47.7227 121.779V107.787C47.7227 98.9951 40.5684 91.8408 31.7764 91.8408H21.6367C12.8418 91.8408 5.68457 98.9951 5.68457 107.787V121.779C5.68457 122.86 6.56348 123.739 7.64453 123.739H45.7715ZM42.0361 68.207C42.0361 76.6562 35.1572 83.5293 26.7051 83.5293C18.2559 83.5293 11.3828 76.6533 11.3828 68.207C11.3828 59.752 18.2559 52.876 26.7051 52.876C35.1602 52.876 42.0361 59.7549 42.0361 68.207ZM37.3516 68.207C37.3516 62.3359 32.5762 57.5605 26.7051 57.5605C20.8369 57.5605 16.0645 62.3359 16.0674 68.207C16.0674 74.0723 20.8398 78.8447 26.7051 78.8447C32.5762 78.8447 37.3516 74.0723 37.3516 68.207ZM34.7002 34.7412H31.5039C27.9004 34.7412 24.9678 31.8115 24.9678 28.2051V7.53613C24.9678 3.93262 27.9004 1 31.5039 1H65.3535C68.957 1 71.8896 3.93262 71.8896 7.53613V28.2051C71.8896 31.8086 68.957 34.7412 65.3535 34.7412H48.0391L40.1611 40.9932C39.4434 41.5586 38.5908 41.8428 37.7383 41.8428C36.9531 41.8428 36.168 41.6025 35.4883 41.1191C34.0732 40.1143 33.4932 38.3359 34.041 36.6924L34.7002 34.7412ZM31.5039 5.68457C30.4844 5.68457 29.6523 6.51367 29.6523 7.53613H29.6465V28.2051C29.6465 29.2246 30.4756 30.0566 31.498 30.0566H35.7842C37.0498 30.0566 38.2041 30.6484 38.9512 31.6797C39.6982 32.7197 39.8916 34.0029 39.4814 35.21L39.3262 35.6728L45.335 30.9033C46.0352 30.3496 46.8701 30.0566 47.7549 30.0566H65.3535C66.373 30.0566 67.2051 29.2275 67.2051 28.2051V7.53613C67.2051 6.5166 66.376 5.68457 65.3535 5.68457H31.5039ZM103.97 41.7412H86.6553C83.0518 41.7412 80.1191 38.8115 80.1191 35.2051V14.5361C80.1191 10.9326 83.0518 8 86.6553 8H120.505C124.108 8 127.041 10.9326 127.041 14.5361V35.2051C127.041 38.8086 124.108 41.7412 120.505 41.7412H117.309L117.965 43.6836C118.516 45.3359 117.933 47.1143 116.521 48.1191C115.841 48.6025 115.056 48.8428 114.268 48.8428C113.421 48.8428 112.574 48.5644 111.859 48.0107L103.97 41.7412ZM86.6553 12.6846C85.6357 12.6846 84.8037 13.5137 84.8037 14.5361V35.2021C84.8037 36.2217 85.6328 37.0537 86.6553 37.0537H104.245C105.136 37.0537 105.974 37.3496 106.674 37.9033L112.683 42.6787L112.524 42.207C112.114 41.0029 112.305 39.7168 113.049 38.6855C113.802 37.6484 114.956 37.0566 116.219 37.0566H120.505C121.524 37.0566 122.356 36.2275 122.356 35.2051V14.5361C122.356 13.5166 121.527 12.6846 120.505 12.6846H86.6553ZM37.6328 10.7676C36.3408 10.7676 35.292 11.8164 35.292 13.1084C35.292 14.4033 36.3379 15.4521 37.6328 15.4492H59.2246C60.5166 15.4492 61.5654 14.4004 61.5654 13.1084C61.5654 11.8164 60.5195 10.7676 59.2246 10.7676H37.6328ZM37.6328 20.2949C36.3408 20.2949 35.292 21.3408 35.292 22.6357C35.292 23.9277 36.3379 24.9766 37.6328 24.9766H49.0352C50.3272 24.9766 51.376 23.9277 51.376 22.6357C51.376 21.3438 50.3272 20.2949 49.0352 20.2949H37.6328ZM92.7812 17.7676C91.4893 17.7676 90.4404 18.8164 90.4404 20.1084C90.4404 21.4033 91.4893 22.4521 92.7812 22.4492H114.373C115.665 22.4492 116.714 21.4004 116.714 20.1084C116.714 18.8164 115.668 17.7676 114.373 17.7676H92.7812ZM114.376 31.9766C115.668 31.9766 116.717 30.9307 116.717 29.6357C116.717 28.3408 115.668 27.292 114.376 27.2949H102.974C101.682 27.2949 100.633 28.3438 100.633 29.6357C100.633 30.9277 101.682 31.9766 102.974 31.9766H114.376ZM55.4219 107.837C55.4219 96.4844 64.6533 87.25 76 87.25C87.3525 87.25 96.5869 96.4844 96.5869 107.837C96.5869 119.189 87.3525 128.424 76 128.424C64.6533 128.424 55.4219 119.189 55.4219 107.837ZM60.1064 107.837C60.1064 116.605 67.2344 123.739 76 123.739C84.7686 123.739 91.9023 116.605 91.9023 107.837C91.9023 99.0684 84.7686 91.9346 76 91.9346C67.2373 91.9346 60.1064 99.0684 60.1064 107.837ZM85.5407 100.554C86.1351 100.892 86.5117 101.482 86.5708 102.166L86.9683 106.614C87.3006 110.297 84.9832 114.493 81.8031 115.964L77.4292 117.994C77.1486 118.123 76.852 118.188 76.5566 118.188C76.3745 118.188 76.1923 118.164 76.0151 118.114C75.8367 118.164 75.6545 118.19 75.4711 118.19C75.1758 118.19 74.8792 118.126 74.5974 117.995L70.5434 116.115C67.191 114.559 64.7161 110.456 65.0262 106.967L65.4582 102.162C65.5161 101.483 65.8902 100.895 66.4834 100.552C67.0815 100.212 67.7756 100.181 68.3922 100.466L72.0178 102.149L74.3155 98.8787C74.718 98.3175 75.3345 98 76.0114 98C76.6945 98 77.3123 98.32 77.7061 98.8775L80.0075 102.15L83.6306 100.468C84.2534 100.18 84.9487 100.212 85.5407 100.554ZM76.0126 99.9703C75.9757 99.9703 75.956 99.9753 75.924 100.02L73.1562 103.957C71.608 106.161 71.7015 110.014 73.3617 112.371L75.9302 116.028C75.956 116.065 75.9757 116.07 76.0126 116.07C76.0582 116.07 76.0717 116.063 76.0976 116.027L78.8703 112.083C80.4222 109.879 80.3287 106.025 78.6685 103.669L76.0963 100.012C76.0717 99.9777 76.057 99.9703 76.0126 99.9703ZM67.4224 102.336L66.9892 107.143C66.7504 109.823 68.7577 113.114 71.3717 114.326L72.7858 114.982L71.7483 113.506C69.853 110.815 69.5737 106.719 70.9594 103.83L67.5639 102.255C67.5295 102.239 67.5135 102.235 67.4667 102.262C67.4347 102.28 67.4261 102.294 67.4224 102.336ZM79.242 114.981L80.9736 114.177C83.4177 113.045 85.2638 109.663 85.0053 106.791L84.6078 102.338C84.6041 102.296 84.598 102.284 84.5598 102.262C84.518 102.239 84.5007 102.237 84.4614 102.256L81.0302 103.849C82.3938 106.819 82.2277 110.738 80.4813 113.218L79.242 114.981Z" fill="url(#paint0_linear_64_160)"/>
<path d="M146.315 121.779V121.279H145.815V121.779H146.315ZM146.318 121.779V122.279H146.818V121.779H146.318ZM16.0674 68.207L16.5674 68.207L16.5674 68.2068L16.0674 68.207ZM34.7002 34.7412L35.1739 34.9012L35.3969 34.2412H34.7002V34.7412ZM48.0391 34.7412V34.2412H47.8648L47.7282 34.3496L48.0391 34.7412ZM40.1611 40.9932L40.4705 41.3859L40.472 41.3848L40.1611 40.9932ZM35.4883 41.1191L35.7781 40.7117L35.7778 40.7115L35.4883 41.1191ZM34.041 36.6924L33.5673 36.5323L33.5667 36.5343L34.041 36.6924ZM29.6523 7.53613V8.03613H30.1523V7.53613H29.6523ZM29.6465 7.53613V7.03613H29.1465V7.53613H29.6465ZM38.9512 31.6797L39.3573 31.388L39.3561 31.3864L38.9512 31.6797ZM39.4814 35.21L39.008 35.0491L39.0074 35.0509L39.4814 35.21ZM39.3262 35.6728L38.8521 35.5138L38.3156 37.1134L39.637 36.0645L39.3262 35.6728ZM45.335 30.9033L45.0248 30.5111L45.0241 30.5117L45.335 30.9033ZM103.97 41.7412L104.281 41.3498L104.144 41.2412H103.97V41.7412ZM117.309 41.7412V41.2412H116.612L116.835 41.9013L117.309 41.7412ZM117.965 43.6836L118.439 43.5255L118.439 43.5236L117.965 43.6836ZM116.521 48.1191L116.81 48.5266L116.81 48.5265L116.521 48.1191ZM111.859 48.0107L111.548 48.4022L111.553 48.406L111.859 48.0107ZM106.674 37.9033L106.985 37.5119L106.984 37.5111L106.674 37.9033ZM112.683 42.6787L112.372 43.0701L113.694 44.1209L113.157 42.5197L112.683 42.6787ZM112.524 42.207L112.998 42.048L112.998 42.0458L112.524 42.207ZM113.049 38.6855L112.644 38.3918L112.643 38.393L113.049 38.6855ZM37.6328 15.4492L37.6328 14.9492L37.6317 14.9492L37.6328 15.4492ZM92.7812 22.4492L92.7812 21.9492L92.7801 21.9492L92.7812 22.4492ZM114.376 27.2949L114.376 27.7949L114.377 27.7949L114.376 27.2949ZM86.5708 102.166L86.0726 102.209L86.0728 102.21L86.5708 102.166ZM85.5407 100.554L85.2905 100.987L85.2933 100.988L85.5407 100.554ZM86.9683 106.614L86.4703 106.658L86.4703 106.659L86.9683 106.614ZM81.8031 115.964L81.5931 115.511L81.5926 115.511L81.8031 115.964ZM77.4292 117.994L77.6383 118.448L77.6396 118.447L77.4292 117.994ZM76.0151 118.114L76.1489 117.633L76.0156 117.596L75.8821 117.632L76.0151 118.114ZM74.5974 117.995L74.3869 118.449L74.3873 118.449L74.5974 117.995ZM70.5434 116.115L70.333 116.568L70.333 116.568L70.5434 116.115ZM65.0262 106.967L64.5282 106.922L64.5282 106.923L65.0262 106.967ZM65.4582 102.162L65.9562 102.207L65.9564 102.205L65.4582 102.162ZM66.4834 100.552L66.2358 100.118L66.2336 100.119L66.4834 100.552ZM68.3922 100.466L68.6026 100.013L68.6023 100.013L68.3922 100.466ZM72.0178 102.149L71.8074 102.602L72.1866 102.778L72.4269 102.436L72.0178 102.149ZM74.3155 98.8787L73.9092 98.5873L73.9064 98.5913L74.3155 98.8787ZM77.7061 98.8775L78.1151 98.5899L78.1145 98.589L77.7061 98.8775ZM80.0075 102.15L79.5985 102.438L79.8389 102.779L80.2181 102.603L80.0075 102.15ZM83.6306 100.468L83.4208 100.014L83.4201 100.014L83.6306 100.468ZM75.924 100.02L75.5187 99.7268L75.515 99.732L75.924 100.02ZM73.1562 103.957L72.7472 103.669L72.7471 103.669L73.1562 103.957ZM73.3617 112.371L73.7709 112.083L73.7705 112.083L73.3617 112.371ZM75.9302 116.028L76.3398 115.742L76.3394 115.741L75.9302 116.028ZM76.0976 116.027L76.5026 116.32L76.5066 116.315L76.0976 116.027ZM78.8703 112.083L78.4615 111.795L78.4613 111.795L78.8703 112.083ZM78.6685 103.669L78.2595 103.956L78.2597 103.957L78.6685 103.669ZM76.0963 100.012L76.5053 99.7245L76.5032 99.7215L76.0963 100.012ZM66.9892 107.143L66.4912 107.098L66.4912 107.098L66.9892 107.143ZM67.4224 102.336L67.9204 102.381L67.9205 102.38L67.4224 102.336ZM71.3717 114.326L71.5821 113.873L71.5821 113.873L71.3717 114.326ZM72.7858 114.982L72.5754 115.436L74.2666 116.22L73.1949 114.695L72.7858 114.982ZM71.7483 113.506L72.1574 113.218L72.157 113.218L71.7483 113.506ZM70.9594 103.83L71.4103 104.046L71.6292 103.589L71.1698 103.376L70.9594 103.83ZM67.5639 102.255L67.3534 102.708L67.3535 102.708L67.5639 102.255ZM67.4667 102.262L67.7166 102.695L67.7172 102.695L67.4667 102.262ZM80.9736 114.177L80.7634 113.724L80.7631 113.724L80.9736 114.177ZM79.242 114.981L78.8329 114.694L77.7603 116.22L79.4525 115.435L79.242 114.981ZM85.0053 106.791L84.5073 106.835L84.5073 106.836L85.0053 106.791ZM84.6078 102.338L84.1098 102.382L84.1098 102.383L84.6078 102.338ZM84.5598 102.262L84.811 101.829L84.8037 101.825L84.5598 102.262ZM84.4614 102.256L84.672 102.709L84.6736 102.708L84.4614 102.256ZM81.0302 103.849L80.8196 103.396L80.3681 103.606L80.5758 104.058L81.0302 103.849ZM80.4813 113.218L80.0725 112.93L80.0722 112.93L80.4813 113.218ZM130.369 86.6562H120.229V87.6562H130.369V86.6562ZM151.5 107.784C151.5 96.1349 142.021 86.6562 130.369 86.6562V87.6562C141.469 87.6562 150.5 96.6873 150.5 107.784H151.5ZM151.5 121.776V107.784H150.5V121.776H151.5ZM144.364 128.921C148.3 128.921 151.5 125.717 151.5 121.776H150.5C150.5 125.166 147.747 127.921 144.364 127.921V128.921ZM106.237 128.921H144.364V127.921H106.237V128.921ZM99.1016 121.776C99.1016 125.714 102.301 128.921 106.237 128.921V127.921C102.855 127.921 100.102 125.163 100.102 121.776H99.1016ZM99.1016 107.784V121.776H100.102V107.784H99.1016ZM120.229 86.6562C108.577 86.6562 99.1016 96.135 99.1016 107.784H100.102C100.102 96.6872 109.13 87.6562 120.229 87.6562V86.6562ZM145.815 121.779C145.815 122.569 145.144 123.239 144.364 123.239V124.239C145.7 124.239 146.815 123.117 146.815 121.779H145.815ZM146.318 121.279H146.315V122.279H146.318V121.279ZM145.818 107.787V121.779H146.818V107.787H145.818ZM130.372 92.3408C138.888 92.3408 145.818 99.2713 145.818 107.787H146.818C146.818 98.719 139.44 91.3408 130.372 91.3408V92.3408ZM120.232 92.3408H130.372V91.3408H120.232V92.3408ZM104.786 107.787C104.786 99.2713 111.717 92.3408 120.232 92.3408V91.3408C111.164 91.3408 103.786 98.719 103.786 107.787H104.786ZM104.786 121.779V107.787H103.786V121.779H104.786ZM106.237 123.239C105.44 123.239 104.786 122.586 104.786 121.779H103.786C103.786 123.135 104.884 124.239 106.237 124.239V123.239ZM144.364 123.239H106.237V124.239H144.364V123.239ZM109.476 68.207C109.476 76.9324 116.572 84.0293 125.298 84.0293V83.0293C117.125 83.0293 110.476 76.3801 110.476 68.207H109.476ZM125.298 52.376C116.572 52.376 109.476 59.4761 109.476 68.207H110.476C110.476 60.0278 117.125 53.376 125.298 53.376V52.376ZM141.129 68.207C141.129 59.4788 134.029 52.376 125.298 52.376V53.376C133.477 53.376 140.129 60.031 140.129 68.207H141.129ZM125.298 84.0293C134.026 84.0293 141.129 76.9327 141.129 68.207H140.129C140.129 76.3798 133.474 83.0293 125.298 83.0293V84.0293ZM135.441 68.207C135.441 73.7958 130.89 78.3447 125.295 78.3447V79.3447C131.442 79.3447 136.441 74.3488 136.441 68.207H135.441ZM125.295 58.0605C130.89 58.0605 135.441 62.6121 135.441 68.207H136.441C136.441 62.0598 131.442 57.0605 125.295 57.0605V58.0605ZM115.157 68.207C115.157 62.6117 119.706 58.0605 125.295 58.0605V57.0605C119.153 57.0605 114.157 62.0602 114.157 68.207H115.157ZM125.295 78.3447C119.706 78.3447 115.157 73.7961 115.157 68.207H114.157C114.157 74.3484 119.154 79.3447 125.295 79.3447V78.3447ZM31.7764 86.6562H21.6367V87.6562H31.7764V86.6562ZM52.9072 107.787C52.9072 96.135 43.4285 86.6562 31.7764 86.6562V87.6562C42.8762 87.6562 51.9072 96.6873 51.9072 107.787H52.9072ZM52.9072 121.779V107.787H51.9072V121.779H52.9072ZM45.7715 128.924C49.7074 128.924 52.9072 125.72 52.9072 121.779H51.9072C51.9072 125.169 49.154 127.924 45.7715 127.924V128.924ZM7.64453 128.924H45.7715V127.924H7.64453V128.924ZM0.5 121.779C0.5 125.717 3.70321 128.924 7.64453 128.924V127.924C4.25578 127.924 1.5 125.165 1.5 121.779H0.5ZM0.5 107.787V121.779H1.5V107.787H0.5ZM21.6367 86.6562C9.98181 86.6562 0.5 96.1349 0.5 107.787H1.5C1.5 96.6874 10.5338 87.6562 21.6367 87.6562V86.6562ZM47.2227 121.779C47.2227 122.586 46.5686 123.239 45.7715 123.239V124.239C47.1248 124.239 48.2227 123.135 48.2227 121.779H47.2227ZM47.2227 107.787V121.779H48.2227V107.787H47.2227ZM31.7764 92.3408C40.2922 92.3408 47.2227 99.2713 47.2227 107.787H48.2227C48.2227 98.719 40.8445 91.3408 31.7764 91.3408V92.3408ZM21.6367 92.3408H31.7764V91.3408H21.6367V92.3408ZM6.18457 107.787C6.18457 99.2714 13.1178 92.3408 21.6367 92.3408V91.3408C12.5658 91.3408 5.18457 98.7188 5.18457 107.787H6.18457ZM6.18457 121.779V107.787H5.18457V121.779H6.18457ZM7.64453 123.239C6.83962 123.239 6.18457 122.584 6.18457 121.779H5.18457C5.18457 123.136 6.28733 124.239 7.64453 124.239V123.239ZM45.7715 123.239H7.64453V124.239H45.7715V123.239ZM26.7051 84.0293C35.4331 84.0293 42.5361 76.9327 42.5361 68.207H41.5361C41.5361 76.3798 34.8814 83.0293 26.7051 83.0293V84.0293ZM10.8828 68.207C10.8828 76.9294 17.9797 84.0293 26.7051 84.0293V83.0293C18.5321 83.0293 11.8828 76.3772 11.8828 68.207H10.8828ZM26.7051 52.376C17.9795 52.376 10.8828 59.4761 10.8828 68.207H11.8828C11.8828 60.0278 18.5323 53.376 26.7051 53.376V52.376ZM42.5361 68.207C42.5361 59.4788 35.4364 52.376 26.7051 52.376V53.376C34.884 53.376 41.5361 60.031 41.5361 68.207H42.5361ZM26.7051 58.0605C32.3 58.0605 36.8516 62.6121 36.8516 68.207H37.8516C37.8516 62.0598 32.8523 57.0605 26.7051 57.0605V58.0605ZM16.5674 68.2068C16.5646 62.6118 21.1133 58.0605 26.7051 58.0605V57.0605C20.5606 57.0605 15.5643 62.0601 15.5674 68.2073L16.5674 68.2068ZM26.7051 78.3447C21.116 78.3447 16.5674 73.7961 16.5674 68.207H15.5674C15.5674 74.3484 20.5637 79.3447 26.7051 79.3447V78.3447ZM36.8516 68.207C36.8516 73.7958 32.3004 78.3447 26.7051 78.3447V79.3447C32.852 79.3447 37.8516 74.3488 37.8516 68.207H36.8516ZM31.5039 35.2412H34.7002V34.2412H31.5039V35.2412ZM24.4678 28.2051C24.4678 32.0878 27.6244 35.2412 31.5039 35.2412V34.2412C28.1764 34.2412 25.4678 31.5352 25.4678 28.2051H24.4678ZM24.4678 7.53613V28.2051H25.4678V7.53613H24.4678ZM31.5039 0.5C27.6242 0.5 24.4678 3.65648 24.4678 7.53613H25.4678C25.4678 4.20876 28.1765 1.5 31.5039 1.5V0.5ZM65.3535 0.5H31.5039V1.5H65.3535V0.5ZM72.3896 7.53613C72.3896 3.65648 69.2332 0.5 65.3535 0.5V1.5C68.6809 1.5 71.3896 4.20876 71.3896 7.53613H72.3896ZM72.3896 28.2051V7.53613H71.3896V28.2051H72.3896ZM65.3535 35.2412C69.2332 35.2412 72.3896 32.0847 72.3896 28.2051H71.3896C71.3896 31.5325 68.6809 34.2412 65.3535 34.2412V35.2412ZM48.0391 35.2412H65.3535V34.2412H48.0391V35.2412ZM40.472 41.3848L48.3499 35.1329L47.7282 34.3496L39.8503 40.6015L40.472 41.3848ZM37.7383 42.3428C38.7028 42.3428 39.6644 42.021 40.4705 41.3859L39.8517 40.6004C39.2223 41.0962 38.4788 41.3428 37.7383 41.3428V42.3428ZM35.1985 41.5266C35.9637 42.0708 36.8504 42.3428 37.7383 42.3428V41.3428C37.0559 41.3428 36.3722 41.1342 35.7781 40.7117L35.1985 41.5266ZM33.5667 36.5343C32.9492 38.3866 33.6044 40.3945 35.1988 41.5268L35.7778 40.7115C34.5421 39.834 34.0371 38.2853 34.5154 36.8505L33.5667 36.5343ZM34.2265 34.5812L33.5673 36.5323L34.5147 36.8524L35.1739 34.9012L34.2265 34.5812ZM30.1523 7.53613C30.1523 6.79033 30.76 6.18457 31.5039 6.18457V5.18457C30.2087 5.18457 29.1523 6.23702 29.1523 7.53613H30.1523ZM29.6465 8.03613H29.6523V7.03613H29.6465V8.03613ZM30.1465 28.2051V7.53613H29.1465V28.2051H30.1465ZM31.498 29.5566C30.7522 29.5566 30.1465 28.949 30.1465 28.2051H29.1465C29.1465 29.5002 30.1989 30.5566 31.498 30.5566V29.5566ZM35.7842 29.5566H31.498V30.5566H35.7842V29.5566ZM39.3561 31.3864C38.5157 30.2263 37.2114 29.5566 35.7842 29.5566V30.5566C36.8882 30.5566 37.8925 31.0705 38.5463 31.973L39.3561 31.3864ZM39.9549 35.3708C40.4173 34.0098 40.1979 32.5582 39.3573 31.388L38.5451 31.9714C39.1986 32.8812 39.3659 33.996 39.008 35.0491L39.9549 35.3708ZM39.8002 35.8319L39.9555 35.369L39.0074 35.0509L38.8521 35.5138L39.8002 35.8319ZM45.0241 30.5117L39.0153 35.2812L39.637 36.0645L45.6458 31.2949L45.0241 30.5117ZM47.7549 29.5566C46.756 29.5566 45.8121 29.8886 45.0248 30.5111L45.6451 31.2955C46.2582 30.8106 46.9843 30.5566 47.7549 30.5566V29.5566ZM65.3535 29.5566H47.7549V30.5566H65.3535V29.5566ZM66.7051 28.2051C66.7051 28.9509 66.0974 29.5566 65.3535 29.5566V30.5566C66.6487 30.5566 67.7051 29.5042 67.7051 28.2051H66.7051ZM66.7051 7.53613V28.2051H67.7051V7.53613H66.7051ZM65.3535 6.18457C66.0993 6.18457 66.7051 6.79223 66.7051 7.53613H67.7051C67.7051 6.24097 66.6526 5.18457 65.3535 5.18457V6.18457ZM31.5039 6.18457H65.3535V5.18457H31.5039V6.18457ZM86.6553 42.2412H103.97V41.2412H86.6553V42.2412ZM79.6191 35.2051C79.6191 39.0878 82.7758 42.2412 86.6553 42.2412V41.2412C83.3278 41.2412 80.6191 38.5352 80.6191 35.2051H79.6191ZM79.6191 14.5361V35.2051H80.6191V14.5361H79.6191ZM86.6553 7.5C82.7756 7.5 79.6191 10.6565 79.6191 14.5361H80.6191C80.6191 11.2088 83.3279 8.5 86.6553 8.5V7.5ZM120.505 7.5H86.6553V8.5H120.505V7.5ZM127.541 14.5361C127.541 10.6565 124.385 7.5 120.505 7.5V8.5C123.832 8.5 126.541 11.2088 126.541 14.5361H127.541ZM127.541 35.2051V14.5361H126.541V35.2051H127.541ZM120.505 42.2412C124.385 42.2412 127.541 39.0847 127.541 35.2051H126.541C126.541 38.5325 123.832 41.2412 120.505 41.2412V42.2412ZM117.309 42.2412H120.505V41.2412H117.309V42.2412ZM118.439 43.5236L117.782 41.5812L116.835 41.9013L117.491 43.8436L118.439 43.5236ZM116.81 48.5265C118.402 47.3942 119.06 45.3864 118.439 43.5255L117.491 43.8417C117.972 45.2854 117.464 46.8343 116.231 47.7118L116.81 48.5265ZM114.268 49.3428C115.158 49.3428 116.045 49.071 116.81 48.5266L116.231 47.7117C115.637 48.1341 114.953 48.3428 114.268 48.3428V49.3428ZM111.553 48.406C112.356 49.0279 113.311 49.3428 114.268 49.3428V48.3428C113.531 48.3428 112.792 48.101 112.166 47.6155L111.553 48.406ZM103.659 42.1327L111.548 48.4022L112.17 47.6193L104.281 41.3498L103.659 42.1327ZM85.3037 14.5361C85.3037 13.7903 85.9114 13.1846 86.6553 13.1846V12.1846C85.3601 12.1846 84.3037 13.237 84.3037 14.5361H85.3037ZM85.3037 35.2021V14.5361H84.3037V35.2021H85.3037ZM86.6553 36.5537C85.9095 36.5537 85.3037 35.9461 85.3037 35.2021H84.3037C84.3037 36.4973 85.3562 37.5537 86.6553 37.5537V36.5537ZM104.245 36.5537H86.6553V37.5537H104.245V36.5537ZM106.984 37.5111C106.197 36.8888 105.25 36.5537 104.245 36.5537V37.5537C105.021 37.5537 105.75 37.8104 106.364 38.2955L106.984 37.5111ZM112.994 42.2873L106.985 37.5119L106.363 38.2948L112.372 43.0701L112.994 42.2873ZM112.05 42.366L112.209 42.8377L113.157 42.5197L112.998 42.048L112.05 42.366ZM112.643 38.393C111.804 39.556 111.589 41.0114 112.051 42.3683L112.998 42.0458C112.64 40.9945 112.805 39.8775 113.454 38.9781L112.643 38.393ZM116.219 36.5566C114.794 36.5566 113.49 37.2269 112.644 38.3918L113.453 38.9793C114.114 38.0699 115.118 37.5566 116.219 37.5566V36.5566ZM120.505 36.5566H116.219V37.5566H120.505V36.5566ZM121.856 35.2051C121.856 35.9509 121.249 36.5566 120.505 36.5566V37.5566C121.8 37.5566 122.856 36.5042 122.856 35.2051H121.856ZM121.856 14.5361V35.2051H122.856V14.5361H121.856ZM120.505 13.1846C121.251 13.1846 121.856 13.7922 121.856 14.5361H122.856C122.856 13.241 121.804 12.1846 120.505 12.1846V13.1846ZM86.6553 13.1846H120.505V12.1846H86.6553V13.1846ZM35.792 13.1084C35.792 12.0925 36.617 11.2676 37.6328 11.2676V10.2676C36.0647 10.2676 34.792 11.5403 34.792 13.1084H35.792ZM37.6317 14.9492C36.6148 14.9515 35.792 14.1282 35.792 13.1084H34.792C34.792 14.6784 36.061 15.9528 37.6339 15.9492L37.6317 14.9492ZM59.2246 14.9492H37.6328V15.9492H59.2246V14.9492ZM61.0654 13.1084C61.0654 14.1242 60.2405 14.9492 59.2246 14.9492V15.9492C60.7927 15.9492 62.0654 14.6765 62.0654 13.1084H61.0654ZM59.2246 11.2676C60.243 11.2676 61.0654 12.0921 61.0654 13.1084H62.0654C62.0654 11.5407 60.7961 10.2676 59.2246 10.2676V11.2676ZM37.6328 11.2676H59.2246V10.2676H37.6328V11.2676ZM35.792 22.6357C35.792 21.6174 36.6166 20.7949 37.6328 20.7949V19.7949C36.0651 19.7949 34.792 21.0643 34.792 22.6357H35.792ZM37.6328 24.4766C36.6144 24.4766 35.792 23.652 35.792 22.6357H34.792C34.792 24.2035 36.0613 25.4766 37.6328 25.4766V24.4766ZM49.0352 24.4766H37.6328V25.4766H49.0352V24.4766ZM50.876 22.6357C50.876 23.6516 50.051 24.4766 49.0352 24.4766V25.4766C50.6033 25.4766 51.876 24.2039 51.876 22.6357H50.876ZM49.0352 20.7949C50.051 20.7949 50.876 21.6199 50.876 22.6357H51.876C51.876 21.0676 50.6033 19.7949 49.0352 19.7949V20.7949ZM37.6328 20.7949H49.0352V19.7949H37.6328V20.7949ZM90.9404 20.1084C90.9404 19.0925 91.7654 18.2676 92.7812 18.2676V17.2676C91.2131 17.2676 89.9404 18.5403 89.9404 20.1084H90.9404ZM92.7801 21.9492C91.7658 21.9515 90.9404 21.1278 90.9404 20.1084H89.9404C89.9404 21.6788 91.2127 22.9528 92.7824 22.9492L92.7801 21.9492ZM114.373 21.9492H92.7812V22.9492H114.373V21.9492ZM116.214 20.1084C116.214 21.1242 115.389 21.9492 114.373 21.9492V22.9492C115.941 22.9492 117.214 21.6765 117.214 20.1084H116.214ZM114.373 18.2676C115.391 18.2676 116.214 19.0921 116.214 20.1084H117.214C117.214 18.5407 115.945 17.2676 114.373 17.2676V18.2676ZM92.7812 18.2676H114.373V17.2676H92.7812V18.2676ZM116.217 29.6357C116.217 30.6541 115.392 31.4766 114.376 31.4766V32.4766C115.944 32.4766 117.217 31.2072 117.217 29.6357H116.217ZM114.377 27.7949C115.391 27.7926 116.217 28.6163 116.217 29.6357H117.217C117.217 28.0653 115.944 26.7914 114.375 26.7949L114.377 27.7949ZM102.974 27.7949H114.376V26.7949H102.974V27.7949ZM101.133 29.6357C101.133 28.6199 101.958 27.7949 102.974 27.7949V26.7949C101.405 26.7949 100.133 28.0676 100.133 29.6357H101.133ZM102.974 31.4766C101.958 31.4766 101.133 30.6516 101.133 29.6357H100.133C100.133 31.2039 101.406 32.4766 102.974 32.4766V31.4766ZM114.376 31.4766H102.974V32.4766H114.376V31.4766ZM76 86.75C64.377 86.75 54.9219 96.2084 54.9219 107.837H55.9219C55.9219 96.7603 64.9296 87.75 76 87.75V86.75ZM97.0869 107.837C97.0869 96.2082 87.6287 86.75 76 86.75V87.75C87.0764 87.75 96.0869 96.7605 96.0869 107.837H97.0869ZM76 128.924C87.6287 128.924 97.0869 119.466 97.0869 107.837H96.0869C96.0869 118.913 87.0764 127.924 76 127.924V128.924ZM54.9219 107.837C54.9219 119.465 64.377 128.924 76 128.924V127.924C64.9296 127.924 55.9219 118.913 55.9219 107.837H54.9219ZM76 123.239C67.5108 123.239 60.6064 116.33 60.6064 107.837H59.6064C59.6064 116.881 66.9579 124.239 76 124.239V123.239ZM91.4023 107.837C91.4023 116.329 84.4924 123.239 76 123.239V124.239C85.0447 124.239 92.4023 116.882 92.4023 107.837H91.4023ZM76 92.4346C84.4924 92.4346 91.4023 99.3445 91.4023 107.837H92.4023C92.4023 98.7922 85.0447 91.4346 76 91.4346V92.4346ZM60.6064 107.837C60.6064 99.3443 67.5137 92.4346 76 92.4346V91.4346C66.9609 91.4346 59.6064 98.7925 59.6064 107.837H60.6064ZM87.0689 102.123C86.9958 101.276 86.5261 100.539 85.7881 100.119L85.2933 100.988C85.7441 101.245 86.0276 101.688 86.0726 102.209L87.0689 102.123ZM87.4663 106.569L87.0688 102.121L86.0728 102.21L86.4703 106.658L87.4663 106.569ZM82.0131 116.418C83.7205 115.628 85.1661 114.124 86.1405 112.36C87.1156 110.595 87.6428 108.526 87.4663 106.569L86.4703 106.659C86.626 108.385 86.1607 110.255 85.2652 111.877C84.3689 113.499 83.0658 114.829 81.5931 115.511L82.0131 116.418ZM77.6396 118.447L82.0135 116.418L81.5926 115.511L77.2187 117.54L77.6396 118.447ZM76.5566 118.688C76.9261 118.688 77.2939 118.607 77.6383 118.448L77.22 117.54C77.0033 117.64 76.7779 117.688 76.5566 117.688V118.688ZM75.8813 118.596C76.1022 118.658 76.3294 118.688 76.5566 118.688V117.688C76.4195 117.688 76.2824 117.67 76.1489 117.633L75.8813 118.596ZM75.4711 118.69C75.7018 118.69 75.9286 118.657 76.1481 118.596L75.8821 117.632C75.7447 117.67 75.6072 117.69 75.4711 117.69V118.69ZM74.3873 118.449C74.7346 118.61 75.1028 118.69 75.4711 118.69V117.69C75.2487 117.69 75.0238 117.641 74.8074 117.541L74.3873 118.449ZM70.333 116.568L74.3869 118.449L74.8078 117.542L70.7538 115.661L70.333 116.568ZM64.5282 106.923C64.3617 108.796 64.9426 110.799 65.9832 112.524C67.0247 114.251 68.5517 115.742 70.333 116.568L70.7539 115.661C69.1828 114.932 67.7961 113.594 66.8395 112.008C65.8822 110.42 65.3806 108.627 65.5243 107.011L64.5282 106.923ZM64.9602 102.117L64.5282 106.922L65.5242 107.012L65.9562 102.207L64.9602 102.117ZM66.2336 100.119C65.4991 100.543 65.0318 101.277 64.96 102.12L65.9564 102.205C66.0003 101.689 66.2813 101.246 66.7332 100.986L66.2336 100.119ZM68.6023 100.013C67.8372 99.6583 66.9726 99.6981 66.2358 100.118L66.731 100.987C67.1904 100.725 67.7141 100.703 68.1821 100.92L68.6023 100.013ZM72.2283 101.695L68.6026 100.013L68.1817 100.92L71.8074 102.602L72.2283 101.695ZM73.9064 98.5913L71.6087 101.861L72.4269 102.436L74.7246 99.1662L73.9064 98.5913ZM76.0114 97.5C75.1711 97.5 74.4042 97.897 73.9092 98.5873L74.7218 99.1701C75.0317 98.738 75.498 98.5 76.0114 98.5V97.5ZM78.1145 98.589C77.6269 97.8988 76.8568 97.5 76.0114 97.5V98.5C76.5321 98.5 76.9976 98.7412 77.2977 99.166L78.1145 98.589ZM80.4165 101.862L78.1151 98.5899L77.2971 99.1651L79.5985 102.438L80.4165 101.862ZM83.4201 100.014L79.7969 101.696L80.2181 102.603L83.8412 100.921L83.4201 100.014ZM85.7909 100.121C85.058 99.6972 84.191 99.6575 83.4208 100.014L83.8405 100.921C84.3157 100.702 84.8394 100.726 85.2905 100.987L85.7909 100.121ZM76.3294 100.312C76.3272 100.315 76.2829 100.379 76.1901 100.426C76.1427 100.449 76.0981 100.461 76.0634 100.466C76.0473 100.469 76.0344 100.469 76.0263 100.47C76.0184 100.47 76.0131 100.47 76.0126 100.47V99.4703C75.9805 99.4703 75.8665 99.4693 75.7429 99.5311C75.6231 99.5911 75.5529 99.6795 75.5187 99.7268L76.3294 100.312ZM73.5652 104.244L76.3331 100.307L75.515 99.732L72.7472 103.669L73.5652 104.244ZM73.7705 112.083C73.008 111 72.5911 109.549 72.5557 108.094C72.5201 106.637 72.8683 105.236 73.5654 104.244L72.7471 103.669C71.8959 104.881 71.5167 106.509 71.556 108.119C71.5953 109.731 72.0553 111.384 72.953 112.659L73.7705 112.083ZM76.3394 115.741L73.7709 112.083L72.9525 112.658L75.521 116.316L76.3394 115.741ZM76.0126 115.57C76.0132 115.57 76.0177 115.57 76.0246 115.571C76.0316 115.571 76.0428 115.572 76.0569 115.574C76.0864 115.578 76.1285 115.587 76.1754 115.609C76.2751 115.654 76.3262 115.722 76.3398 115.742L75.5206 116.315C75.56 116.371 75.6339 116.46 75.7592 116.518C75.8761 116.571 75.9832 116.57 76.0126 116.57V115.57ZM75.6926 115.734C75.6928 115.734 75.6954 115.73 75.6999 115.724C75.7045 115.719 75.7123 115.71 75.7232 115.698C75.7465 115.675 75.7832 115.643 75.8344 115.617C75.8856 115.591 75.9323 115.58 75.965 115.574C75.9804 115.572 75.9926 115.571 75.9999 115.571C76.0073 115.57 76.012 115.57 76.0126 115.57V116.57C76.0479 116.57 76.1657 116.571 76.2905 116.507C76.4156 116.443 76.4836 116.347 76.5026 116.32L75.6926 115.734ZM78.4613 111.795L75.6885 115.74L76.5066 116.315L79.2794 112.37L78.4613 111.795ZM78.2597 103.957C79.0222 105.039 79.4391 106.49 79.4741 107.945C79.5092 109.402 79.1602 110.803 78.4615 111.795L79.2791 112.371C80.1324 111.159 80.5126 109.531 80.4738 107.921C80.435 106.309 79.9749 104.655 79.0772 103.381L78.2597 103.957ZM75.6874 100.3L78.2595 103.956L79.0774 103.381L76.5053 99.7245L75.6874 100.3ZM76.0126 100.47C76.0125 100.47 75.9931 100.471 75.9649 100.466C75.9333 100.461 75.8881 100.45 75.8382 100.426C75.7879 100.4 75.7507 100.37 75.7255 100.345C75.7033 100.322 75.6906 100.304 75.6895 100.303L76.5032 99.7215C76.4796 99.6886 76.4112 99.594 76.2855 99.5311C76.1635 99.4701 76.0492 99.4703 76.0126 99.4703V100.47ZM67.4872 107.188L67.9204 102.381L66.9244 102.291L66.4912 107.098L67.4872 107.188ZM71.5821 113.873C70.3814 113.316 69.2953 112.267 68.5375 111.025C67.7785 109.781 67.3797 108.394 67.4872 107.187L66.4912 107.098C66.3599 108.572 66.8454 110.171 67.6838 111.546C68.5235 112.922 69.748 114.125 71.1613 114.78L71.5821 113.873ZM72.9962 114.529L71.5821 113.873L71.1613 114.78L72.5754 115.436L72.9962 114.529ZM71.3392 113.793L72.3766 115.27L73.1949 114.695L72.1574 113.218L71.3392 113.793ZM70.5086 103.614C69.0465 106.662 69.3374 110.951 71.3395 113.793L72.157 113.218C70.3687 110.679 70.1008 106.777 71.4103 104.046L70.5086 103.614ZM67.3535 102.708L70.749 104.283L71.1698 103.376L67.7744 101.801L67.3535 102.708ZM67.7172 102.695C67.7161 102.695 67.699 102.705 67.6714 102.716C67.641 102.727 67.5945 102.74 67.5362 102.742C67.4194 102.746 67.3347 102.699 67.3534 102.708L67.7745 101.801C67.7587 101.794 67.6487 101.738 67.5036 101.742C67.3618 101.747 67.2573 101.805 67.2162 101.829L67.7172 102.695ZM67.9205 102.38C67.9203 102.381 67.9187 102.401 67.912 102.428C67.9045 102.459 67.8901 102.502 67.8616 102.549C67.8018 102.648 67.7226 102.692 67.7166 102.695L67.2168 101.829C67.1789 101.851 67.0793 101.91 67.0063 102.031C66.9376 102.144 66.9276 102.255 66.9243 102.292L67.9205 102.38ZM80.7631 113.724L79.0315 114.528L79.4525 115.435L81.1841 114.631L80.7631 113.724ZM84.5073 106.836C84.6261 108.155 84.261 109.62 83.5641 110.897C82.866 112.176 81.8638 113.214 80.7634 113.724L81.1837 114.631C82.5276 114.009 83.6704 112.79 84.4418 111.376C85.2143 109.961 85.6431 108.299 85.5033 106.746L84.5073 106.836ZM84.1098 102.383L84.5073 106.835L85.5034 106.746L85.1058 102.294L84.1098 102.383ZM84.3087 102.694C84.3087 102.694 84.2899 102.684 84.2657 102.664C84.2381 102.641 84.2018 102.605 84.1701 102.553C84.1101 102.455 84.108 102.362 84.1098 102.382L85.1059 102.294C85.104 102.272 85.0969 102.152 85.0234 102.032C84.9475 101.908 84.8413 101.847 84.8109 101.83L84.3087 102.694ZM84.6736 102.708C84.6725 102.709 84.5924 102.749 84.4778 102.742C84.4232 102.739 84.3802 102.726 84.3531 102.715C84.3402 102.71 84.3304 102.706 84.3248 102.703C84.3192 102.7 84.316 102.698 84.3159 102.698L84.8037 101.825C84.7737 101.809 84.6753 101.753 84.5415 101.744C84.398 101.735 84.2896 101.784 84.2491 101.803L84.6736 102.708ZM81.2408 104.303L84.672 102.709L84.2507 101.802L80.8196 103.396L81.2408 104.303ZM80.8901 113.505C82.7552 110.857 82.91 106.745 81.4846 103.641L80.5758 104.058C81.8776 106.893 81.7001 110.618 80.0725 112.93L80.8901 113.505ZM79.6511 115.269L80.8904 113.505L80.0722 112.93L78.8329 114.694L79.6511 115.269Z" fill="url(#paint1_linear_64_160)" mask="url(#path-1-outside-1_64_160)"/>
<defs>
<linearGradient id="paint0_linear_64_160" x1="76" y1="1" x2="76" y2="128.424" gradientUnits="userSpaceOnUse">
<stop stop-color="#3401FF"/>
<stop offset="1" stop-color="#FBA097"/>
</linearGradient>
<linearGradient id="paint1_linear_64_160" x1="76" y1="1" x2="76" y2="128.424" gradientUnits="userSpaceOnUse">
<stop stop-color="#3401FF"/>
<stop offset="1" stop-color="#FBA097"/>
</linearGradient>
</defs>
</svg>
