<svg width="147" height="135" viewBox="0 0 147 135" fill="none" xmlns="http://www.w3.org/2000/svg">
<mask id="path-1-outside-1_64_135" maskUnits="userSpaceOnUse" x="0" y="0" width="147" height="135" fill="black">
<rect fill="white" width="147" height="135"/>
<path fill-rule="evenodd" clip-rule="evenodd" d="M51.7197 22.4482C51.7197 10.6207 61.3373 1 73.1587 1C84.9862 1 94.6069 10.6207 94.6069 22.4482C94.6069 34.2757 84.9862 43.8964 73.1587 43.8964C61.3373 43.8964 51.7197 34.2757 51.7197 22.4482ZM56.6002 22.4482C56.6002 31.5836 64.0264 39.0158 73.1587 39.0158C82.2941 39.0158 89.7263 31.5836 89.7263 22.4482C89.7263 13.3128 82.2941 5.88055 73.1587 5.88055C64.0294 5.88055 56.6002 13.3128 56.6002 22.4482ZM23.3337 48.6152C23.3337 49.9638 24.427 51.057 25.7755 51.057C27.1241 51.057 28.2173 49.9638 28.2173 48.6152C28.2173 46.2596 28.5287 43.9263 29.136 41.6473C29.4832 40.3442 28.7083 39.0063 27.4052 38.6591C26.1021 38.3119 24.7642 39.0868 24.417 40.3899C23.7027 43.0709 23.3337 45.8267 23.3337 48.6152ZM117.954 48.6152C117.954 49.9637 119.047 51.057 120.395 51.057C121.744 51.057 122.837 49.9637 122.837 48.6152C122.837 45.8267 122.468 43.0709 121.754 40.3899C121.407 39.0868 120.069 38.3119 118.766 38.6591C117.463 39.0063 116.688 40.3442 117.035 41.6473C117.642 43.9263 117.954 46.2596 117.954 48.6152ZM32.2152 26.0302C31.3283 27.0461 31.4329 28.5886 32.4488 29.4755C33.4647 30.3624 35.0072 30.2578 35.8941 29.2419C37.4264 27.4867 39.1783 25.8258 41.1396 24.2868C42.2006 23.4543 42.3858 21.9194 41.5533 20.8584C40.7208 19.7975 39.1859 19.6123 38.1249 20.4448C35.9324 22.1652 33.9564 24.0356 32.2152 26.0302ZM110.277 29.2419C111.164 30.2578 112.706 30.3624 113.722 29.4755C114.738 28.5886 114.843 27.0461 113.956 26.0302C112.215 24.0356 110.239 22.1652 108.046 20.4448C106.985 19.6123 105.45 19.7975 104.618 20.8584C103.785 21.9194 103.97 23.4543 105.031 24.2868C106.993 25.8258 108.745 27.4866 110.277 29.2419ZM82.093 13.3137C83.0465 14.2673 83.0465 15.8134 82.093 16.767L76.5163 22.3436L81.8321 27.6594C82.7857 28.6129 82.7857 30.159 81.8321 31.1126C80.8785 32.0662 79.3324 32.0662 78.3789 31.1126L73.0631 25.7968L67.7474 31.1126C66.7938 32.0661 65.2477 32.0661 64.2941 31.1126C63.3405 30.159 63.3405 28.6129 64.2941 27.6593L69.6099 22.3436L64.0333 16.767C63.0797 15.8134 63.0797 14.2673 64.0333 13.3138C64.9868 12.3602 66.5329 12.3602 67.4865 13.3138L73.0631 18.8904L78.6397 13.3137C79.5933 12.3601 81.1394 12.3601 82.093 13.3137ZM31.7764 93.1562H21.6367C10.2578 93.1562 1 102.411 1 113.787V127.779C1 131.441 3.97949 134.424 7.64453 134.424H45.7715C49.4307 134.424 52.4072 131.444 52.4072 127.779V113.787C52.4072 102.411 43.1523 93.1562 31.7764 93.1562ZM47.7227 127.779C47.7227 128.86 46.8467 129.739 45.7715 129.739H7.64453C6.56348 129.739 5.68457 128.86 5.68457 127.779V113.787C5.68457 104.995 12.8418 97.8408 21.6367 97.8408H31.7764C40.5684 97.8408 47.7227 104.995 47.7227 113.787V127.779ZM26.7051 89.5293C35.1572 89.5293 42.0361 82.6562 42.0361 74.207C42.0361 65.7549 35.1602 58.876 26.7051 58.876C18.2559 58.876 11.3828 65.752 11.3828 74.207C11.3828 82.6533 18.2559 89.5293 26.7051 89.5293ZM26.7051 63.5605C32.5762 63.5605 37.3516 68.3359 37.3516 74.207C37.3516 80.0723 32.5762 84.8447 26.7051 84.8447C20.8398 84.8447 16.0674 80.0723 16.0674 74.207C16.0645 68.3359 20.8369 63.5605 26.7051 63.5605ZM115.637 93.1562H125.776C137.152 93.1562 146.407 102.411 146.407 113.787V127.779C146.407 131.444 143.431 134.424 139.771 134.424H101.645C97.9795 134.424 95 131.441 95 127.779V113.787C95 102.411 104.258 93.1562 115.637 93.1562ZM139.771 129.739C140.847 129.739 141.723 128.86 141.723 127.779V113.787C141.723 104.995 134.568 97.8408 125.776 97.8408H115.637C106.842 97.8408 99.6846 104.995 99.6846 113.787V127.779C99.6846 128.86 100.563 129.739 101.645 129.739H139.771ZM136.036 74.207C136.036 82.6562 129.157 89.5293 120.705 89.5293C112.256 89.5293 105.383 82.6533 105.383 74.207C105.383 65.752 112.256 58.876 120.705 58.876C129.16 58.876 136.036 65.7549 136.036 74.207ZM131.352 74.207C131.352 68.3359 126.576 63.5605 120.705 63.5605C114.837 63.5605 110.064 68.3359 110.067 74.207C110.067 80.0723 114.84 84.8447 120.705 84.8447C126.576 84.8447 131.352 80.0723 131.352 74.207Z"/>
</mask>
<path fill-rule="evenodd" clip-rule="evenodd" d="M51.7197 22.4482C51.7197 10.6207 61.3373 1 73.1587 1C84.9862 1 94.6069 10.6207 94.6069 22.4482C94.6069 34.2757 84.9862 43.8964 73.1587 43.8964C61.3373 43.8964 51.7197 34.2757 51.7197 22.4482ZM56.6002 22.4482C56.6002 31.5836 64.0264 39.0158 73.1587 39.0158C82.2941 39.0158 89.7263 31.5836 89.7263 22.4482C89.7263 13.3128 82.2941 5.88055 73.1587 5.88055C64.0294 5.88055 56.6002 13.3128 56.6002 22.4482ZM23.3337 48.6152C23.3337 49.9638 24.427 51.057 25.7755 51.057C27.1241 51.057 28.2173 49.9638 28.2173 48.6152C28.2173 46.2596 28.5287 43.9263 29.136 41.6473C29.4832 40.3442 28.7083 39.0063 27.4052 38.6591C26.1021 38.3119 24.7642 39.0868 24.417 40.3899C23.7027 43.0709 23.3337 45.8267 23.3337 48.6152ZM117.954 48.6152C117.954 49.9637 119.047 51.057 120.395 51.057C121.744 51.057 122.837 49.9637 122.837 48.6152C122.837 45.8267 122.468 43.0709 121.754 40.3899C121.407 39.0868 120.069 38.3119 118.766 38.6591C117.463 39.0063 116.688 40.3442 117.035 41.6473C117.642 43.9263 117.954 46.2596 117.954 48.6152ZM32.2152 26.0302C31.3283 27.0461 31.4329 28.5886 32.4488 29.4755C33.4647 30.3624 35.0072 30.2578 35.8941 29.2419C37.4264 27.4867 39.1783 25.8258 41.1396 24.2868C42.2006 23.4543 42.3858 21.9194 41.5533 20.8584C40.7208 19.7975 39.1859 19.6123 38.1249 20.4448C35.9324 22.1652 33.9564 24.0356 32.2152 26.0302ZM110.277 29.2419C111.164 30.2578 112.706 30.3624 113.722 29.4755C114.738 28.5886 114.843 27.0461 113.956 26.0302C112.215 24.0356 110.239 22.1652 108.046 20.4448C106.985 19.6123 105.45 19.7975 104.618 20.8584C103.785 21.9194 103.97 23.4543 105.031 24.2868C106.993 25.8258 108.745 27.4866 110.277 29.2419ZM82.093 13.3137C83.0465 14.2673 83.0465 15.8134 82.093 16.767L76.5163 22.3436L81.8321 27.6594C82.7857 28.6129 82.7857 30.159 81.8321 31.1126C80.8785 32.0662 79.3324 32.0662 78.3789 31.1126L73.0631 25.7968L67.7474 31.1126C66.7938 32.0661 65.2477 32.0661 64.2941 31.1126C63.3405 30.159 63.3405 28.6129 64.2941 27.6593L69.6099 22.3436L64.0333 16.767C63.0797 15.8134 63.0797 14.2673 64.0333 13.3138C64.9868 12.3602 66.5329 12.3602 67.4865 13.3138L73.0631 18.8904L78.6397 13.3137C79.5933 12.3601 81.1394 12.3601 82.093 13.3137ZM31.7764 93.1562H21.6367C10.2578 93.1562 1 102.411 1 113.787V127.779C1 131.441 3.97949 134.424 7.64453 134.424H45.7715C49.4307 134.424 52.4072 131.444 52.4072 127.779V113.787C52.4072 102.411 43.1523 93.1562 31.7764 93.1562ZM47.7227 127.779C47.7227 128.86 46.8467 129.739 45.7715 129.739H7.64453C6.56348 129.739 5.68457 128.86 5.68457 127.779V113.787C5.68457 104.995 12.8418 97.8408 21.6367 97.8408H31.7764C40.5684 97.8408 47.7227 104.995 47.7227 113.787V127.779ZM26.7051 89.5293C35.1572 89.5293 42.0361 82.6562 42.0361 74.207C42.0361 65.7549 35.1602 58.876 26.7051 58.876C18.2559 58.876 11.3828 65.752 11.3828 74.207C11.3828 82.6533 18.2559 89.5293 26.7051 89.5293ZM26.7051 63.5605C32.5762 63.5605 37.3516 68.3359 37.3516 74.207C37.3516 80.0723 32.5762 84.8447 26.7051 84.8447C20.8398 84.8447 16.0674 80.0723 16.0674 74.207C16.0645 68.3359 20.8369 63.5605 26.7051 63.5605ZM115.637 93.1562H125.776C137.152 93.1562 146.407 102.411 146.407 113.787V127.779C146.407 131.444 143.431 134.424 139.771 134.424H101.645C97.9795 134.424 95 131.441 95 127.779V113.787C95 102.411 104.258 93.1562 115.637 93.1562ZM139.771 129.739C140.847 129.739 141.723 128.86 141.723 127.779V113.787C141.723 104.995 134.568 97.8408 125.776 97.8408H115.637C106.842 97.8408 99.6846 104.995 99.6846 113.787V127.779C99.6846 128.86 100.563 129.739 101.645 129.739H139.771ZM136.036 74.207C136.036 82.6562 129.157 89.5293 120.705 89.5293C112.256 89.5293 105.383 82.6533 105.383 74.207C105.383 65.752 112.256 58.876 120.705 58.876C129.16 58.876 136.036 65.7549 136.036 74.207ZM131.352 74.207C131.352 68.3359 126.576 63.5605 120.705 63.5605C114.837 63.5605 110.064 68.3359 110.067 74.207C110.067 80.0723 114.84 84.8447 120.705 84.8447C126.576 84.8447 131.352 80.0723 131.352 74.207Z" fill="url(#paint0_linear_64_135)"/>
<path d="M23.3337 48.6152L23.8337 48.6152L23.8337 48.6152L23.3337 48.6152ZM29.136 41.6473L28.6528 41.5186L28.6528 41.5186L29.136 41.6473ZM27.4052 38.6591L27.5339 38.176L27.5339 38.176L27.4052 38.6591ZM24.417 40.3899L23.9339 40.2612L23.9339 40.2612L24.417 40.3899ZM121.754 40.3899L122.237 40.2612L122.237 40.2612L121.754 40.3899ZM118.766 38.6591L118.894 39.1423L118.894 39.1423L118.766 38.6591ZM117.035 41.6473L117.518 41.5186L117.518 41.5186L117.035 41.6473ZM32.2152 26.0302L32.5918 26.359L32.5918 26.359L32.2152 26.0302ZM35.8941 29.2419L36.2708 29.5707L36.2708 29.5707L35.8941 29.2419ZM41.1396 24.2868L41.4483 24.6802L41.4483 24.6802L41.1396 24.2868ZM38.1249 20.4448L38.4336 20.8381L38.1249 20.4448ZM113.722 29.4755L113.393 29.0988L113.393 29.0988L113.722 29.4755ZM110.277 29.2419L109.9 29.5707L109.9 29.5707L110.277 29.2419ZM113.956 26.0302L114.332 25.7014L114.332 25.7014L113.956 26.0302ZM108.046 20.4448L107.737 20.8381L107.737 20.8381L108.046 20.4448ZM104.618 20.8584L105.011 21.1671L105.011 21.1671L104.618 20.8584ZM105.031 24.2868L104.723 24.6802L104.723 24.6802L105.031 24.2868ZM82.093 16.767L82.4465 17.1205L82.4465 17.1205L82.093 16.767ZM76.5163 22.3436L76.1628 21.99L75.8092 22.3436L76.1628 22.6972L76.5163 22.3436ZM81.8321 27.6594L82.1856 27.3058L82.1856 27.3058L81.8321 27.6594ZM81.8321 31.1126L82.1856 31.4661L82.1856 31.4661L81.8321 31.1126ZM78.3789 31.1126L78.7324 30.759L78.7324 30.759L78.3789 31.1126ZM73.0631 25.7968L73.4166 25.4433L73.0631 25.0897L72.7095 25.4433L73.0631 25.7968ZM67.7474 31.1126L68.1009 31.4661L68.1009 31.4661L67.7474 31.1126ZM64.2941 31.1126L63.9406 31.4661L63.9406 31.4661L64.2941 31.1126ZM64.2941 27.6593L63.9406 27.3058L63.9406 27.3058L64.2941 27.6593ZM69.6099 22.3436L69.9634 22.6972L70.317 22.3436L69.9634 21.99L69.6099 22.3436ZM64.0333 16.767L63.6797 17.1205L63.6797 17.1205L64.0333 16.767ZM67.4865 13.3138L67.1329 13.6673L67.1329 13.6673L67.4865 13.3138ZM73.0631 18.8904L72.7095 19.2439L73.0631 19.5975L73.4166 19.2439L73.0631 18.8904ZM78.6397 13.3137L78.9933 13.6673L78.9933 13.6673L78.6397 13.3137ZM16.0674 74.207L16.5674 74.207L16.5674 74.2068L16.0674 74.207ZM110.067 74.207L110.567 74.207L110.567 74.2068L110.067 74.207ZM73.1587 0.5C61.061 0.5 51.2197 10.3447 51.2197 22.4482H52.2197C52.2197 10.8967 61.6136 1.5 73.1587 1.5V0.5ZM95.1069 22.4482C95.1069 10.3446 85.2623 0.5 73.1587 0.5V1.5C84.71 1.5 94.1069 10.8968 94.1069 22.4482H95.1069ZM73.1587 44.3964C85.2623 44.3964 95.1069 34.5518 95.1069 22.4482H94.1069C94.1069 33.9995 84.71 43.3964 73.1587 43.3964V44.3964ZM51.2197 22.4482C51.2197 34.5516 61.061 44.3964 73.1587 44.3964V43.3964C61.6136 43.3964 52.2197 33.9997 52.2197 22.4482H51.2197ZM73.1587 38.5158C64.3028 38.5158 57.1002 31.3077 57.1002 22.4482H56.1002C56.1002 31.8594 63.7499 39.5158 73.1587 39.5158V38.5158ZM89.2263 22.4482C89.2263 31.3074 82.018 38.5158 73.1587 38.5158V39.5158C82.5702 39.5158 90.2263 31.8597 90.2263 22.4482H89.2263ZM73.1587 6.38055C82.018 6.38055 89.2263 13.5889 89.2263 22.4482H90.2263C90.2263 13.0366 82.5702 5.38055 73.1587 5.38055V6.38055ZM57.1002 22.4482C57.1002 13.5887 64.3058 6.38055 73.1587 6.38055V5.38055C63.753 5.38055 56.1002 13.0369 56.1002 22.4482H57.1002ZM25.7755 50.557C24.7031 50.557 23.8337 49.6876 23.8337 48.6152H22.8337C22.8337 50.2399 24.1508 51.557 25.7755 51.557V50.557ZM27.7173 48.6152C27.7173 49.6876 26.8479 50.557 25.7755 50.557V51.557C27.4002 51.557 28.7173 50.2399 28.7173 48.6152H27.7173ZM28.6528 41.5186C28.0346 43.8387 27.7173 46.2153 27.7173 48.6152H28.7173C28.7173 46.3039 29.0228 44.0139 29.6191 41.776L28.6528 41.5186ZM27.2765 39.1423C28.3127 39.4184 28.929 40.4823 28.6528 41.5186L29.6191 41.776C30.0375 40.2061 29.1039 38.5943 27.5339 38.176L27.2765 39.1423ZM24.9002 40.5186C25.1763 39.4824 26.2402 38.8661 27.2765 39.1423L27.5339 38.176C25.964 37.7577 24.3522 38.6912 23.9339 40.2612L24.9002 40.5186ZM23.8337 48.6152C23.8337 45.871 24.1968 43.1585 24.9002 40.5186L23.9339 40.2612C23.2086 42.9833 22.8337 45.7824 22.8337 48.6152L23.8337 48.6152ZM120.395 50.557C119.323 50.557 118.454 49.6876 118.454 48.6152H117.454C117.454 50.2399 118.771 51.557 120.395 51.557V50.557ZM122.337 48.6152C122.337 49.6876 121.468 50.557 120.395 50.557V51.557C122.02 51.557 123.337 50.2399 123.337 48.6152H122.337ZM121.271 40.5186C121.974 43.1585 122.337 45.871 122.337 48.6152H123.337C123.337 45.7823 122.962 42.9833 122.237 40.2612L121.271 40.5186ZM118.894 39.1423C119.931 38.8661 120.995 39.4824 121.271 40.5186L122.237 40.2612C121.819 38.6912 120.207 37.7576 118.637 38.176L118.894 39.1423ZM117.518 41.5186C117.242 40.4823 117.858 39.4184 118.894 39.1423L118.637 38.176C117.067 38.5943 116.133 40.2061 116.552 41.776L117.518 41.5186ZM118.454 48.6152C118.454 46.2152 118.136 43.8387 117.518 41.5186L116.552 41.776C117.148 44.0138 117.454 46.3039 117.454 48.6152H118.454ZM32.7776 29.0989C31.9697 28.3936 31.8865 27.1669 32.5918 26.359L31.8385 25.7014C30.77 26.9253 30.896 28.7837 32.12 29.8522L32.7776 29.0989ZM35.5175 28.9131C34.8122 29.721 33.5855 29.8041 32.7776 29.0989L32.12 29.8522C33.3439 30.9207 35.2023 30.7946 36.2708 29.5707L35.5175 28.9131ZM40.831 23.8934C38.8459 25.451 37.0711 27.1333 35.5175 28.9131L36.2708 29.5707C37.7817 27.84 39.5106 26.2006 41.4483 24.6802L40.831 23.8934ZM41.1599 21.1671C41.822 22.0108 41.6747 23.2314 40.831 23.8934L41.4483 24.6802C42.7265 23.6772 42.9496 21.828 41.9467 20.5498L41.1599 21.1671ZM38.4336 20.8381C39.2773 20.1761 40.4979 20.3234 41.1599 21.1671L41.9467 20.5498C40.9437 19.2716 39.0945 19.0485 37.8163 20.0514L38.4336 20.8381ZM32.5918 26.359C34.3117 24.3889 36.2647 22.54 38.4336 20.8381L37.8163 20.0514C35.6001 21.7904 33.6012 23.6823 31.8385 25.7014L32.5918 26.359ZM113.393 29.0988C112.585 29.8041 111.359 29.7209 110.653 28.9131L109.9 29.5707C110.969 30.7946 112.827 30.9207 114.051 29.8522L113.393 29.0988ZM113.579 26.359C114.284 27.1669 114.201 28.3936 113.393 29.0988L114.051 29.8522C115.275 28.7837 115.401 26.9253 114.332 25.7014L113.579 26.359ZM107.737 20.8381C109.906 22.54 111.859 24.3889 113.579 26.359L114.332 25.7014C112.57 23.6823 110.571 21.7904 108.355 20.0514L107.737 20.8381ZM105.011 21.1671C105.673 20.3234 106.894 20.1761 107.737 20.8381L108.355 20.0514C107.076 19.0484 105.227 19.2716 104.224 20.5498L105.011 21.1671ZM105.34 23.8934C104.496 23.2314 104.349 22.0108 105.011 21.1671L104.224 20.5498C103.221 21.828 103.444 23.6772 104.723 24.6802L105.34 23.8934ZM110.653 28.9131C109.1 27.1333 107.325 25.451 105.34 23.8934L104.723 24.6802C106.66 26.2006 108.389 27.84 109.9 29.5707L110.653 28.9131ZM82.4465 17.1205C83.5954 15.9717 83.5954 14.109 82.4465 12.9602L81.7394 13.6673C82.4977 14.4256 82.4977 15.6551 81.7394 16.4134L82.4465 17.1205ZM76.8699 22.6972L82.4465 17.1205L81.7394 16.4134L76.1628 21.99L76.8699 22.6972ZM82.1856 27.3058L76.8699 21.99L76.1628 22.6972L81.4785 28.0129L82.1856 27.3058ZM82.1856 31.4661C83.3345 30.3173 83.3345 28.4546 82.1856 27.3058L81.4785 28.0129C82.2369 28.7712 82.2369 30.0007 81.4785 30.759L82.1856 31.4661ZM78.0253 31.4661C79.1741 32.615 81.0368 32.615 82.1856 31.4661L81.4785 30.759C80.7202 31.5174 79.4907 31.5174 78.7324 30.759L78.0253 31.4661ZM72.7095 26.1504L78.0253 31.4661L78.7324 30.759L73.4166 25.4433L72.7095 26.1504ZM68.1009 31.4661L73.4166 26.1504L72.7095 25.4433L67.3938 30.759L68.1009 31.4661ZM63.9406 31.4661C65.0894 32.615 66.9521 32.615 68.1009 31.4661L67.3938 30.759C66.6355 31.5173 65.406 31.5173 64.6477 30.759L63.9406 31.4661ZM63.9406 27.3058C62.7917 28.4546 62.7917 30.3173 63.9406 31.4661L64.6477 30.759C63.8894 30.0007 63.8894 28.7712 64.6477 28.0129L63.9406 27.3058ZM69.2563 21.99L63.9406 27.3058L64.6477 28.0129L69.9634 22.6972L69.2563 21.99ZM63.6797 17.1205L69.2563 22.6972L69.9634 21.99L64.3868 16.4134L63.6797 17.1205ZM63.6797 12.9602C62.5309 14.1091 62.5309 15.9717 63.6797 17.1205L64.3868 16.4134C63.6285 15.6551 63.6285 14.4256 64.3868 13.6673L63.6797 12.9602ZM67.84 12.9602C66.6912 11.8114 64.8285 11.8114 63.6797 12.9602L64.3868 13.6673C65.1451 12.909 66.3746 12.909 67.1329 13.6673L67.84 12.9602ZM73.4166 18.5368L67.84 12.9602L67.1329 13.6673L72.7095 19.2439L73.4166 18.5368ZM78.2862 12.9602L72.7095 18.5368L73.4166 19.2439L78.9933 13.6673L78.2862 12.9602ZM82.4465 12.9602C81.2977 11.8113 79.435 11.8113 78.2862 12.9602L78.9933 13.6673C79.7516 12.909 80.9811 12.909 81.7394 13.6673L82.4465 12.9602ZM21.6367 93.6562H31.7764V92.6562H21.6367V93.6562ZM1.5 113.787C1.5 102.687 10.5338 93.6562 21.6367 93.6562V92.6562C9.98181 92.6562 0.5 102.135 0.5 113.787H1.5ZM1.5 127.779V113.787H0.5V127.779H1.5ZM7.64453 133.924C4.25578 133.924 1.5 131.165 1.5 127.779H0.5C0.5 131.717 3.70321 134.924 7.64453 134.924V133.924ZM45.7715 133.924H7.64453V134.924H45.7715V133.924ZM51.9072 127.779C51.9072 131.169 49.154 133.924 45.7715 133.924V134.924C49.7074 134.924 52.9072 131.72 52.9072 127.779H51.9072ZM51.9072 113.787V127.779H52.9072V113.787H51.9072ZM31.7764 93.6562C42.8762 93.6562 51.9072 102.687 51.9072 113.787H52.9072C52.9072 102.135 43.4285 92.6562 31.7764 92.6562V93.6562ZM45.7715 130.239C47.1248 130.239 48.2227 129.135 48.2227 127.779H47.2227C47.2227 128.586 46.5686 129.239 45.7715 129.239V130.239ZM7.64453 130.239H45.7715V129.239H7.64453V130.239ZM5.18457 127.779C5.18457 129.136 6.28733 130.239 7.64453 130.239V129.239C6.83962 129.239 6.18457 128.584 6.18457 127.779H5.18457ZM5.18457 113.787V127.779H6.18457V113.787H5.18457ZM21.6367 97.3408C12.5658 97.3408 5.18457 104.719 5.18457 113.787H6.18457C6.18457 105.271 13.1178 98.3408 21.6367 98.3408V97.3408ZM31.7764 97.3408H21.6367V98.3408H31.7764V97.3408ZM48.2227 113.787C48.2227 104.719 40.8445 97.3408 31.7764 97.3408V98.3408C40.2922 98.3408 47.2227 105.271 47.2227 113.787H48.2227ZM48.2227 127.779V113.787H47.2227V127.779H48.2227ZM41.5361 74.207C41.5361 82.3798 34.8814 89.0293 26.7051 89.0293V90.0293C35.4331 90.0293 42.5361 82.9327 42.5361 74.207H41.5361ZM26.7051 59.376C34.884 59.376 41.5361 66.031 41.5361 74.207H42.5361C42.5361 65.4788 35.4364 58.376 26.7051 58.376V59.376ZM11.8828 74.207C11.8828 66.0278 18.5323 59.376 26.7051 59.376V58.376C17.9795 58.376 10.8828 65.4761 10.8828 74.207H11.8828ZM26.7051 89.0293C18.5321 89.0293 11.8828 82.3772 11.8828 74.207H10.8828C10.8828 82.9294 17.9797 90.0293 26.7051 90.0293V89.0293ZM37.8516 74.207C37.8516 68.0598 32.8523 63.0605 26.7051 63.0605V64.0605C32.3 64.0605 36.8516 68.6121 36.8516 74.207H37.8516ZM26.7051 85.3447C32.852 85.3447 37.8516 80.3488 37.8516 74.207H36.8516C36.8516 79.7958 32.3004 84.3447 26.7051 84.3447V85.3447ZM15.5674 74.207C15.5674 80.3484 20.5637 85.3447 26.7051 85.3447V84.3447C21.116 84.3447 16.5674 79.7961 16.5674 74.207H15.5674ZM26.7051 63.0605C20.5606 63.0605 15.5643 68.0601 15.5674 74.2073L16.5674 74.2068C16.5646 68.6118 21.1133 64.0605 26.7051 64.0605V63.0605ZM125.776 92.6562H115.637V93.6562H125.776V92.6562ZM146.907 113.787C146.907 102.135 137.428 92.6562 125.776 92.6562V93.6562C136.876 93.6562 145.907 102.687 145.907 113.787H146.907ZM146.907 127.779V113.787H145.907V127.779H146.907ZM139.771 134.924C143.707 134.924 146.907 131.72 146.907 127.779H145.907C145.907 131.169 143.154 133.924 139.771 133.924V134.924ZM101.645 134.924H139.771V133.924H101.645V134.924ZM94.5 127.779C94.5 131.717 97.7032 134.924 101.645 134.924V133.924C98.2558 133.924 95.5 131.165 95.5 127.779H94.5ZM94.5 113.787V127.779H95.5V113.787H94.5ZM115.637 92.6562C103.982 92.6562 94.5 102.135 94.5 113.787H95.5C95.5 102.687 104.534 93.6562 115.637 93.6562V92.6562ZM141.223 127.779C141.223 128.586 140.569 129.239 139.771 129.239V130.239C141.125 130.239 142.223 129.135 142.223 127.779H141.223ZM141.223 113.787V127.779H142.223V113.787H141.223ZM125.776 98.3408C134.292 98.3408 141.223 105.271 141.223 113.787H142.223C142.223 104.719 134.845 97.3408 125.776 97.3408V98.3408ZM115.637 98.3408H125.776V97.3408H115.637V98.3408ZM100.185 113.787C100.185 105.271 107.118 98.3408 115.637 98.3408V97.3408C106.566 97.3408 99.1846 104.719 99.1846 113.787H100.185ZM100.185 127.779V113.787H99.1846V127.779H100.185ZM101.645 129.239C100.84 129.239 100.185 128.584 100.185 127.779H99.1846C99.1846 129.136 100.287 130.239 101.645 130.239V129.239ZM139.771 129.239H101.645V130.239H139.771V129.239ZM120.705 90.0293C129.433 90.0293 136.536 82.9327 136.536 74.207H135.536C135.536 82.3798 128.881 89.0293 120.705 89.0293V90.0293ZM104.883 74.207C104.883 82.9294 111.98 90.0293 120.705 90.0293V89.0293C112.532 89.0293 105.883 82.3772 105.883 74.207H104.883ZM120.705 58.376C111.979 58.376 104.883 65.4761 104.883 74.207H105.883C105.883 66.0278 112.532 59.376 120.705 59.376V58.376ZM136.536 74.207C136.536 65.4788 129.436 58.376 120.705 58.376V59.376C128.884 59.376 135.536 66.031 135.536 74.207H136.536ZM120.705 64.0605C126.3 64.0605 130.852 68.6121 130.852 74.207H131.852C131.852 68.0598 126.852 63.0605 120.705 63.0605V64.0605ZM110.567 74.2068C110.565 68.6118 115.113 64.0605 120.705 64.0605V63.0605C114.561 63.0605 109.564 68.0601 109.567 74.2073L110.567 74.2068ZM120.705 84.3447C115.116 84.3447 110.567 79.7961 110.567 74.207H109.567C109.567 80.3484 114.564 85.3447 120.705 85.3447V84.3447ZM130.852 74.207C130.852 79.7958 126.3 84.3447 120.705 84.3447V85.3447C126.852 85.3447 131.852 80.3488 131.852 74.207H130.852Z" fill="url(#paint1_linear_64_135)" mask="url(#path-1-outside-1_64_135)"/>
<defs>
<linearGradient id="paint0_linear_64_135" x1="73.7036" y1="1" x2="73.7036" y2="134.424" gradientUnits="userSpaceOnUse">
<stop stop-color="#3401FF"/>
<stop offset="1" stop-color="#FBA097"/>
</linearGradient>
<linearGradient id="paint1_linear_64_135" x1="73.7036" y1="1" x2="73.7036" y2="134.424" gradientUnits="userSpaceOnUse">
<stop stop-color="#3401FF"/>
<stop offset="1" stop-color="#FBA097"/>
</linearGradient>
</defs>
</svg>
