<svg width="132" height="133" viewBox="0 0 132 133" fill="none" xmlns="http://www.w3.org/2000/svg">
<path fill-rule="evenodd" clip-rule="evenodd" d="M98.08 0.0477773L98.0819 0.0477759C107.074 0.0592109 115.695 3.63638 122.053 9.99478C128.411 16.3532 131.989 24.9737 132 33.9658V33.9671C132 47.5388 128.221 60.8366 121.092 72.3727C124.358 75.4381 126.997 79.1116 128.861 83.1898C130.841 87.5243 131.903 92.222 131.979 96.9871C132.055 101.752 131.143 106.481 129.301 110.876C127.459 115.272 124.726 119.238 121.276 122.525C117.826 125.812 113.732 128.349 109.253 129.976C104.773 131.604 100.006 132.285 95.2498 131.979C90.4941 131.673 85.8533 130.385 81.6198 128.197C77.6924 126.167 74.1946 123.403 71.314 120.057L68.0284 122.905C67.4653 123.393 66.7452 123.661 66 123.661C65.2549 123.661 64.5348 123.393 63.9718 122.905L25.2968 89.3941C17.3522 82.5097 10.9813 73.9968 6.61656 64.4333C2.25194 54.87 -0.00459887 44.4798 3.4261e-05 33.9676C-0.0116727 25.7267 2.9772 17.7633 8.40832 11.5652C13.8396 5.36691 21.3418 1.35799 29.5133 0.287469C37.6847 -0.783056 45.9664 1.15805 52.8111 5.74813C58.9832 9.88715 63.6061 15.9248 66.0032 22.9124C68.1697 16.6472 72.1298 11.1345 77.4153 7.07523C83.3428 2.52302 90.6062 0.0529415 98.08 0.0477773ZM116.196 68.5008C122.479 58.0845 125.806 46.1449 125.806 33.967V33.9652C125.82 27.2266 123.378 20.7139 118.939 15.6445C114.499 10.5751 108.366 7.29596 101.684 6.42012C95.003 5.54428 88.2313 7.13168 82.6352 10.8856C77.0392 14.6395 73.0017 20.3029 71.2777 26.8172L71.2772 26.819L68.9917 35.3885C68.8154 36.0472 68.4265 36.6301 67.8856 37.0453C67.3447 37.4605 66.6819 37.6855 66 37.6855C65.3182 37.6855 64.6554 37.4605 64.1145 37.0453C63.5736 36.6301 63.1848 36.048 63.0085 35.3894L60.7223 26.8172C58.9983 20.3029 54.9609 14.6395 49.3648 10.8856C43.7687 7.13168 36.997 5.54428 30.3157 6.42012C23.6343 7.29596 17.5006 10.5751 13.0611 15.6445C8.62165 20.7139 6.18035 27.2266 6.19358 33.9652L6.19358 33.9674C6.19056 43.5929 8.25811 53.1064 12.2559 61.8624C16.2537 70.6184 22.0883 78.412 29.3637 84.7143L66.0001 116.467L67.7069 114.988C64.7201 109.938 63.0684 104.206 62.9151 98.3315C62.7544 92.1714 64.2475 86.0807 67.2389 80.6933C70.2303 75.3059 74.6109 70.8186 79.9247 67.6983C85.2381 64.5782 91.2905 62.9389 97.4522 62.951C104.113 62.9459 110.624 64.8781 116.196 68.5008ZM121.028 113.252C124.143 108.59 125.806 103.108 125.806 97.5004C125.798 89.9824 122.808 82.7747 117.492 77.4586C112.176 72.1426 104.969 69.1526 97.4505 69.1445C91.8428 69.1447 86.3611 70.8077 81.6985 73.9232C77.0356 77.0388 73.4013 81.4673 71.2552 86.6484C69.1091 91.8296 68.5475 97.5308 69.6416 103.031C70.7357 108.531 73.4362 113.584 77.4017 117.549C81.3672 121.515 86.4196 124.215 91.9199 125.309C97.4202 126.403 103.121 125.842 108.303 123.696C113.484 121.55 117.912 117.915 121.028 113.252ZM57.6129 36.1929H45.5323V24.1123C45.5323 23.4236 45.2587 22.7631 44.7717 22.2761C44.2847 21.7891 43.6242 21.5155 42.9355 21.5155H30.3549C29.6662 21.5155 29.0057 21.7891 28.5187 22.2761C28.0317 22.7631 27.7581 23.4236 27.7581 24.1123V36.1929H15.6775C14.9888 36.1929 14.3283 36.4665 13.8413 36.9535C13.3543 37.4405 13.0807 38.101 13.0807 38.7897V51.3703C13.0807 52.059 13.3543 52.7195 13.8413 53.2065C14.3283 53.6935 14.9888 53.9671 15.6775 53.9671H27.7581V66.0477C27.7581 66.7364 28.0317 67.397 28.5187 67.8839C29.0057 68.3709 29.6662 68.6445 30.3549 68.6445H42.9355C43.6242 68.6445 44.2847 68.3709 44.7717 67.8839C45.2587 67.3969 45.5323 66.7364 45.5323 66.0477V53.9671H57.6129C58.3016 53.9671 58.9621 53.6935 59.4491 53.2065C59.9361 52.7195 60.2097 52.059 60.2097 51.3703V38.7897C60.2097 38.101 59.9361 37.4405 59.4491 36.9535C58.9621 36.4665 58.3016 36.1929 57.6129 36.1929ZM55.0162 48.7736H42.9355C42.2468 48.7736 41.5863 49.0471 41.0993 49.5341C40.6123 50.0211 40.3387 50.6816 40.3387 51.3703V63.451H32.9516V51.3703C32.9516 50.6816 32.6781 50.0211 32.1911 49.5341C31.7041 49.0471 31.0436 48.7736 30.3549 48.7736H18.2742V41.3865H30.3549C31.0436 41.3865 31.7041 41.1129 32.1911 40.6259C32.6781 40.1389 32.9516 39.4784 32.9516 38.7897V26.709H40.3387V38.7897C40.3387 39.4784 40.6123 40.1389 41.0993 40.6259C41.5863 41.1129 42.2468 41.3865 42.9355 41.3865H55.0162V48.7736ZM115.119 83.1574L83.1096 115.167C82.8907 115.386 82.723 115.65 82.6185 115.942C82.514 116.233 82.4753 116.544 82.5051 116.852C82.535 117.16 82.6327 117.458 82.7912 117.723C82.9498 117.989 83.1652 118.217 83.4221 118.39C88.2632 121.645 94.085 123.116 99.8914 122.553C105.698 121.99 111.128 119.426 115.253 115.301C119.378 111.176 121.942 105.746 122.505 99.9392C123.069 94.1328 121.597 88.311 118.342 83.4699C118.169 83.2129 117.941 82.9975 117.675 82.8391C117.409 82.6807 117.111 82.5832 116.803 82.5536C116.495 82.5267 116.185 82.5668 115.895 82.671C115.604 82.7753 115.339 82.9412 115.119 83.1574ZM118.419 97.4994C118.418 101.081 117.499 104.603 115.751 107.729C114.002 110.855 111.483 113.481 108.432 115.358C105.381 117.234 101.901 118.298 98.3224 118.449C94.7438 118.599 91.1864 117.831 87.9888 116.217L116.169 88.0366C117.653 90.97 118.424 94.2121 118.419 97.4994ZM112.112 77.2759C112.27 77.542 112.368 77.8399 112.397 78.1482C112.427 78.456 112.388 78.7666 112.284 79.0577C112.18 79.3488 112.012 79.6132 111.794 79.8319L79.7926 111.841C79.3994 112.235 78.8662 112.455 78.3102 112.456C78.2713 112.456 78.2347 112.453 78.1991 112.45C78.1656 112.448 78.133 112.445 78.1005 112.445C77.7922 112.416 77.4943 112.318 77.2282 112.16C76.9621 112.001 76.7344 111.786 76.5615 111.529C73.3064 106.688 71.8347 100.866 72.398 95.0595C72.9614 89.253 75.5249 83.8228 79.65 79.6977C83.7751 75.5727 89.2053 73.0092 95.0118 72.4458C100.818 71.8824 106.64 73.3541 111.481 76.6092C111.738 76.7821 111.953 77.0098 112.112 77.2759ZM76.7478 94.1882C76.0486 98.549 76.7436 103.019 78.7337 106.962L106.914 78.7814C102.972 76.7913 98.5013 76.0963 94.1404 76.7955C89.7796 77.4947 85.7506 79.5524 82.6276 82.6754C79.5046 85.7983 77.447 89.8273 76.7478 94.1882Z" fill="url(#paint0_linear_64_153)"/>
<defs>
<linearGradient id="paint0_linear_64_153" x1="66" y1="0" x2="66" y2="132.05" gradientUnits="userSpaceOnUse">
<stop stop-color="#3401FF"/>
<stop offset="1" stop-color="#FBA097"/>
</linearGradient>
</defs>
</svg>
