<svg width="100" height="140" viewBox="0 0 100 140" fill="none" xmlns="http://www.w3.org/2000/svg">
<path d="M51.0619 109.5C56.6669 109.609 61.9678 110.956 67.1383 112.933C74.6333 115.757 81.5201 119.689 87.9941 124.338C89.7755 125.62 90.2317 127.879 89.2107 129.856C88.2113 131.811 86.1257 132.68 83.9967 132.094C80.4338 131.138 76.8927 130.139 73.3081 129.313C69.919 128.531 66.4865 128.075 62.9888 128.075C59.2522 128.053 55.4938 128.031 51.7789 128.292C47.8901 128.574 44.0448 129.183 40.1561 129.639C36.8756 130.03 33.5952 130.464 30.3148 130.79C29.3806 130.877 28.403 130.725 27.4905 130.53C24.688 129.9 23.5366 127.988 24.2753 125.207C25.1008 122.187 27.0126 119.863 29.2285 117.799C33.5735 113.758 38.744 111.325 44.5662 110.282C46.7387 109.891 48.9112 109.739 51.0619 109.5ZM75.3068 121.927C75.1982 121.709 75.1764 121.622 75.1113 121.579C74.9592 121.47 74.8071 121.34 74.6333 121.253C71.5267 119.732 68.4418 118.146 65.2699 116.756C62.2067 115.431 58.9698 114.518 55.6459 114.279C52.8216 114.062 49.954 114.149 47.108 114.236C43.9579 114.323 40.873 114.844 37.8098 115.583C37.0494 115.757 36.9408 116.083 37.1798 116.756C37.875 118.603 39.1785 119.906 40.8296 120.862C43.2627 122.296 45.9349 122.948 48.7374 122.991C52.322 123.056 55.9066 123.165 59.4694 123.056C63.3364 122.926 67.2034 122.6 71.0705 122.318C72.4608 122.209 73.8295 122.057 75.3068 121.927Z" fill="#FBA097"/>
<path d="M48.6288 100.114C44.8921 99.94 41.2858 99.1362 37.7012 98.1369C33.5518 96.9854 29.4458 95.6385 25.557 93.7485C24.4056 93.1836 23.3628 92.3581 22.3418 91.576C20.8862 90.468 21.0383 88.9038 21.299 87.3396C22.1028 82.3647 22.8414 77.3897 23.7322 72.4364C25.8612 60.6399 28.2292 48.8868 32.0093 37.4813C32.8131 35.0481 33.8342 32.6584 34.7684 30.2686C35.2029 29.1824 36.1587 28.661 37.0495 28.9217C38.0922 29.2476 38.5267 30.1383 38.3312 31.3766C36.8322 41.1528 34.0297 50.6465 31.8355 60.2706C29.7282 69.5688 27.6426 78.8452 25.5136 88.1217C25.3832 88.73 25.5353 89.0776 26.0133 89.3383C27.7078 90.2508 29.3589 91.2284 31.0969 92.0539C36.0936 94.3785 41.2858 96.2034 46.6953 97.3113C47.4991 97.4851 48.2812 97.6155 49.085 97.7458C50.106 97.9196 50.5623 98.3541 50.4754 99.1145C50.3885 99.7879 49.8671 100.114 48.8677 100.092C48.7808 100.114 48.7157 100.114 48.6288 100.114Z" fill="#FBA097"/>
<path d="M93.7729 25.925C81.2159 25.447 70.7446 20.8848 62.5543 11.4128C60.3601 8.87101 58.8177 5.9599 58.0356 2.67946C57.7749 1.54977 58.079 0.659039 58.948 0.224543C59.817 -0.231677 60.6643 0.00730602 61.4464 0.941472C63.9665 3.96122 66.3562 7.08959 69.0501 9.95726C73.6557 14.8453 79.1086 18.5386 85.4523 20.8197C89.6234 22.2969 93.9249 23.0573 98.3351 23.1442C98.4437 23.1442 98.5523 23.1442 98.6609 23.1442C99.3996 23.1007 99.8558 23.4483 99.9861 24.1652C100.095 24.7735 99.5516 25.3818 98.813 25.4687C97.0967 25.6425 95.3805 25.7729 93.7729 25.925Z" fill="#FBA097"/>
<path d="M6.87372 25.8814C10.6538 26.1204 14.4774 25.7945 18.2141 24.5779C24.1884 22.6227 28.7071 18.8208 32.0962 13.6069C32.2483 13.3896 32.3786 13.1289 32.5307 12.9117C32.9217 12.3903 33.4214 12.1948 34.008 12.5206C34.5728 12.8248 34.8335 13.3462 34.5511 13.9545C33.8342 15.4969 33.2476 17.1263 32.3569 18.5601C28.0988 25.3383 22.0593 29.705 14.1515 31.2474C10.0673 32.0512 5.93955 32.0295 2.09426 30.0526C1.65977 29.8353 1.22527 29.5963 0.834226 29.3356C0.117308 28.836 -0.186836 27.9018 0.117311 27.098C0.421458 26.3159 1.00803 25.8814 1.85529 25.8814C3.48465 25.8814 5.11401 25.8814 6.87372 25.8814Z" fill="#FBA097"/>
<path d="M59.2739 132.658C63.8578 132.897 68.2462 133.723 72.3305 135.808C72.6998 135.982 73.0909 136.308 73.2429 136.656C73.6123 137.525 72.8953 138.263 71.8525 138.155C70.3535 138.002 68.8328 137.829 67.3338 137.655C64.6182 137.329 61.9243 137.633 59.2522 138.089C56.9059 138.502 54.6031 139.11 52.2568 139.523C51.3009 139.697 50.3016 139.654 49.3457 139.588C48.5636 139.545 48.0205 139.024 47.7598 138.263C47.4773 137.503 47.6729 136.808 48.1943 136.221C49.476 134.787 51.1054 133.94 52.952 133.571C55.0376 133.158 57.1666 132.962 59.2739 132.658Z" fill="#FBA097"/>
<path d="M18.7572 33.3778C20.8645 33.3996 22.6459 34.6813 23.4063 36.7235C24.2318 38.8959 24.0797 40.9815 22.7763 42.9368C20.7776 45.9348 16.8454 45.913 14.825 42.9368C13.0653 40.3515 13.4563 36.6366 15.6722 34.5944C16.5847 33.7906 17.6275 33.3344 18.7572 33.3778Z" fill="#FBA097"/>
<path d="M82.3673 31.6824C82.3239 33.3552 81.8242 34.8542 80.6511 36.0491C78.5655 38.1999 75.4154 38.026 73.5471 35.6798C71.7222 33.3769 71.7222 29.7923 73.5905 27.533C74.7637 26.0991 76.3061 25.4257 78.131 25.8167C80.2383 26.273 81.4766 27.7502 82.0632 29.7489C82.237 30.3789 82.2587 31.0307 82.3673 31.6824Z" fill="#FBA097"/>
</svg>
