<svg width="100" height="140" viewBox="0 0 100 140" fill="none" xmlns="http://www.w3.org/2000/svg">
<path d="M49.4288 112.192C49.4288 112.215 49.4288 112.237 49.4288 112.237C50.7291 112.078 52.0294 111.986 53.3297 111.758C59.2153 110.663 64.9412 108.952 70.4618 106.648C72.3325 105.873 74.1575 105.006 75.6631 103.591C76.7125 102.61 77.0547 101.447 76.8493 100.124C76.0737 95.0596 75.3893 89.9952 74.4312 84.9765C72.9484 77.2658 71.3743 69.6009 69.6634 61.9359C68.0894 54.8868 65.9906 47.9746 63.139 41.2906C62.6144 40.0815 61.7019 39.5112 60.6981 39.7621C59.74 40.0131 59.1925 40.994 59.3978 42.2259C59.6715 43.9596 59.9225 45.7162 60.3331 47.4271C61.8844 54.2481 63.5269 61.0234 65.1009 67.8443C67.4506 77.9958 69.7775 88.1702 72.0815 98.3446C72.6975 101.014 72.6747 101.036 70.0969 102.405C64.8272 105.211 59.2609 107.287 53.4894 108.815C51.7556 109.272 49.9762 109.523 48.2197 109.865C47.5353 110.002 47.0334 110.321 47.0563 111.097C47.0563 111.781 47.5353 112.169 48.4022 112.192C48.7444 112.192 49.0866 112.192 49.4288 112.192ZM54.0369 131.491C55.5881 131.377 57.1622 131.286 58.7134 131.149C63.7322 130.715 68.5 129.392 72.9712 127.065C75.9825 125.491 78.6972 123.552 80.9784 121.043C81.5943 120.359 81.7084 119.674 81.275 119.15C80.8187 118.602 80.1572 118.648 79.4043 119.264C78.9025 119.674 78.4006 120.085 77.8531 120.473C72.4694 124.419 66.3328 126.176 59.7628 126.609C55.6109 126.883 51.5275 126.381 47.4897 125.491C42.1744 124.328 37.0644 122.526 31.9544 120.61C28.715 119.4 25.3844 118.374 22.0766 117.347C20.5938 116.891 19.2479 117.94 19.5444 119.355C19.6585 119.925 20.1375 120.541 20.6166 120.883C24.6316 123.758 29.0344 125.834 33.6653 127.499C40.2809 129.849 47.0106 131.423 54.0369 131.491ZM41.8778 0C41.125 0.0684374 40.5091 0.159676 39.8931 0.159676C35.7869 0.182489 31.9088 1.34592 28.0991 2.66905C18.7688 5.90842 10.351 10.7675 2.75443 17.0637C1.93318 17.7253 1.13475 18.4325 0.381937 19.1397C-0.0743121 19.5731 -0.142755 20.1434 0.290682 20.6681C0.678494 21.1472 1.18037 21.2612 1.72786 20.9647C2.04724 20.7822 2.36662 20.5997 2.68599 20.3943C9.52973 15.9687 16.7613 12.3187 24.5175 9.83217C29.7644 8.16686 35.1025 6.72968 40.395 5.20124C41.125 4.99593 41.8778 4.69936 42.6078 4.72217C44.0222 4.7678 44.775 3.87812 45.0031 2.96562C45.2541 1.91625 44.6838 0.798431 43.5659 0.364994C43.0184 0.136869 42.3797 0.0912499 41.8778 0ZM22.3047 35.2453C19.59 35.1996 16.9894 35.7928 14.48 36.8193C10.6704 38.3706 7.18005 40.4237 4.55662 43.7315C3.82662 44.644 3.75817 45.4881 4.30567 46.3093C4.83036 47.0621 5.72005 47.3587 6.74661 46.9481C8.20661 46.3777 9.6438 45.7618 11.0582 45.1002C13.4535 43.9368 15.8032 42.5909 18.2441 41.5415C21.8941 39.9446 25.681 39.785 29.4678 41.1765C32.4563 42.2715 35.1481 43.914 37.6803 45.8531C38.2963 46.3321 38.8894 46.5146 39.5053 45.9443C39.9616 45.5109 39.9388 44.7125 39.3228 44.1193C38.0225 42.7962 36.7678 41.4274 35.3306 40.264C31.5666 37.1387 27.2778 35.2681 22.3047 35.2453ZM96.97 18.6378C96.9015 18.3412 96.8787 18.0218 96.7874 17.7253C96.0803 15.2387 94.7343 13.1172 92.9778 11.2237C89.5331 7.55092 85.2443 5.45218 80.4537 4.10625C76.53 3.01125 72.4922 2.48655 68.4772 1.91624C67.7472 1.82499 67.1312 2.05311 66.9259 2.78311C66.7206 3.55873 67.1769 4.01499 67.884 4.24311C69.595 4.83624 71.3515 5.38374 73.0397 6.04531C75.7544 7.11749 78.5147 8.14405 81.1381 9.42155C84.7881 11.1781 87.6624 13.9384 90.3315 16.9497C91.3581 18.1131 92.5899 19.1168 93.7534 20.1434C94.3921 20.6909 95.1678 20.7593 95.8978 20.3487C96.5821 20.0065 96.9928 19.4362 96.97 18.6378ZM84.6284 39.899C84.2178 39.9446 83.579 39.9903 82.9631 40.0359C80.2028 40.264 77.4653 40.7887 75.0015 42.0662C73.8153 42.6821 72.7431 43.5946 71.8078 44.5527C71.3287 45.0318 70.9637 45.8987 70.9637 46.6059C70.9409 47.9062 72.2412 48.5905 73.6556 48.2027C76.8265 47.3587 80.0203 46.4918 83.214 45.6706C86.4534 44.8493 89.5331 45.2143 92.1793 47.3131C94.1412 48.8643 95.9206 50.6437 97.7684 52.309C98.2703 52.7652 98.8178 53.1759 99.5021 52.6512C100.164 52.1265 100.095 51.5105 99.7075 50.8262C98.2931 48.294 96.6049 45.9899 94.529 43.9596C91.8143 41.4046 88.5749 40.0359 84.6284 39.899ZM42.6078 135.552C42.9044 136.054 43.1325 136.601 43.4975 137.012C44.5925 138.198 46.0069 138.86 47.5809 139.179C50.0675 139.681 52.5769 139.749 55.1091 139.361C58.7819 138.791 62.2494 137.719 65.3747 135.666C66.1047 135.187 66.3784 134.548 66.0362 133.955C65.6712 133.316 65.1009 133.293 64.4165 133.407C61.8615 133.795 59.3066 134.388 56.7516 134.365C53.9684 134.343 51.1853 133.704 48.3794 133.407C47.1247 133.27 45.8244 133.248 44.5697 133.362C43.4291 133.453 42.7675 134.32 42.6078 135.552Z" fill="white"/>
<path d="M49.4288 112.192C49.0866 112.192 48.7444 112.192 48.4022 112.192C47.5353 112.169 47.0563 111.805 47.0563 111.097C47.0334 110.322 47.5353 110.002 48.2197 109.865C49.9763 109.523 51.7556 109.272 53.4894 108.816C59.2609 107.31 64.8272 105.235 70.0969 102.406C72.6747 101.037 72.6975 101.014 72.0815 98.3451C69.7775 88.1708 67.4506 78.0192 65.1009 67.8449C63.5269 61.0468 61.9072 54.2486 60.3331 47.4277C59.9453 45.7168 59.6944 43.9602 59.3978 42.2265C59.1925 40.9946 59.74 40.0136 60.6981 39.7627C61.7019 39.4889 62.6144 40.0593 63.1391 41.2912C65.9906 47.9524 68.0665 54.8646 69.6634 61.9364C71.3744 69.5786 72.9712 77.2664 74.4312 84.977C75.3894 89.9958 76.0737 95.0602 76.8493 100.125C77.0547 101.448 76.7125 102.611 75.6631 103.592C74.1575 105.029 72.3325 105.873 70.4619 106.649C64.9412 108.953 59.2153 110.664 53.3297 111.759C52.0522 111.987 50.7291 112.078 49.4288 112.238C49.4516 112.215 49.4516 112.192 49.4288 112.192Z" fill="#5F24FF"/>
<path d="M54.0369 131.491C47.0106 131.4 40.281 129.849 33.711 127.476C29.08 125.811 24.6544 123.735 20.6622 120.861C20.1832 120.519 19.7041 119.903 19.59 119.332C19.2935 117.918 20.6394 116.869 22.1222 117.325C25.4301 118.351 28.7607 119.378 32 120.587C37.0872 122.48 42.1972 124.305 47.5353 125.469C51.596 126.359 55.6794 126.86 59.8085 126.587C66.3784 126.153 72.515 124.397 77.8987 120.45C78.4234 120.062 78.9253 119.652 79.45 119.241C80.2028 118.625 80.8644 118.602 81.3206 119.127C81.754 119.652 81.64 120.336 81.0241 121.02C78.7428 123.53 76.0053 125.469 73.0169 127.043C68.5456 129.37 63.7778 130.693 58.7591 131.126C57.1394 131.286 55.5881 131.377 54.0369 131.491Z" fill="#5F24FF"/>
<path d="M41.8778 0C42.3797 0.114062 43.0184 0.159682 43.5659 0.364994C44.6838 0.798431 45.2541 1.91625 45.0031 2.96562C44.775 3.87812 44.0222 4.7678 42.6078 4.72217C41.8778 4.69936 41.125 4.99593 40.395 5.20124C35.1025 6.72968 29.7644 8.14405 24.5175 9.83217C16.7385 12.3187 9.50692 15.9687 2.68599 20.3943C2.36662 20.5997 2.07005 20.805 1.72786 20.9647C1.15755 21.2612 0.678494 21.1472 0.290682 20.6681C-0.142755 20.1434 -0.0743121 19.5731 0.381937 19.1397C1.13475 18.4097 1.95599 17.7253 2.75443 17.0637C10.351 10.7675 18.7688 5.90842 28.0991 2.66905C31.9088 1.34592 35.7869 0.205301 39.8931 0.159676C40.5091 0.159676 41.1478 0.0684374 41.8778 0Z" fill="#5F24FF"/>
<path d="M22.3047 35.2446C27.2778 35.2675 31.5666 37.1381 35.3534 40.2406C36.7906 41.404 38.0453 42.7727 39.3456 44.0959C39.9387 44.7118 39.9844 45.4874 39.5281 45.9209C38.9122 46.4912 38.2962 46.3087 37.7031 45.8296C35.1937 43.8906 32.5019 42.2481 29.4906 41.1531C25.7038 39.7615 21.9169 39.9212 18.2669 41.5181C15.826 42.5903 13.4991 43.9134 11.081 45.0768C9.66659 45.7612 8.22941 46.3543 6.76941 46.9246C5.74285 47.3352 4.85316 47.0387 4.32847 46.2859C3.75816 45.4646 3.8494 44.6206 4.5794 43.7081C7.18003 40.4003 10.6703 38.3699 14.5028 36.7959C16.9894 35.7921 19.59 35.199 22.3047 35.2446Z" fill="#5F24FF"/>
<path d="M96.97 18.6372C96.9928 19.4585 96.5821 20.0288 95.9206 20.3938C95.1678 20.8044 94.3922 20.736 93.7762 20.1885C92.59 19.1619 91.3809 18.1582 90.3543 16.9947C87.6853 13.9835 84.8109 11.2232 81.1609 9.46663C78.5375 8.18913 75.7772 7.16255 73.0625 6.09037C71.3744 5.42881 69.6406 4.88132 67.9069 4.28819C67.1997 4.03725 66.7434 3.60381 66.9487 2.82819C67.154 2.07538 67.77 1.84725 68.5 1.96132C72.515 2.53163 76.5528 3.05631 80.4765 4.15131C85.2672 5.47443 89.5559 7.59599 93.0006 11.2688C94.7571 13.1394 96.0803 15.2838 96.8103 17.7704C96.8787 18.0213 96.9243 18.3179 96.97 18.6372Z" fill="#5F24FF"/>
<path d="M84.6284 39.8984C88.575 40.0353 91.8143 41.4041 94.5062 44.0047C96.605 46.0122 98.2703 48.339 99.6846 50.8712C100.072 51.5556 100.164 52.1715 99.4793 52.6962C98.795 53.2209 98.2703 52.8103 97.7456 52.354C95.8978 50.6659 94.1184 48.9094 92.1565 47.3581C89.5103 45.2365 86.4078 44.8944 83.1912 45.7156C79.9975 46.5369 76.8265 47.3809 73.6328 48.2478C72.2184 48.6356 70.9181 47.9512 70.9409 46.6509C70.9409 45.9437 71.3059 45.0997 71.785 44.5978C72.7431 43.6397 73.8153 42.7272 74.9787 42.1112C77.4425 40.8337 80.18 40.309 82.9403 40.0809C83.579 39.9897 84.2178 39.9441 84.6284 39.8984Z" fill="#5F24FF"/>
<path d="M42.6078 135.551C42.7675 134.342 43.4291 133.452 44.5925 133.361C45.8472 133.27 47.1475 133.293 48.4022 133.407C51.1853 133.703 53.9684 134.342 56.7744 134.365C59.3294 134.388 61.8844 133.794 64.4394 133.407C65.1237 133.293 65.694 133.315 66.059 133.954C66.3784 134.547 66.1047 135.186 65.3975 135.665C62.2722 137.718 58.8047 138.79 55.1319 139.361C52.5997 139.749 50.0903 139.68 47.6038 139.178C46.0525 138.859 44.6153 138.197 43.5203 137.011C43.1097 136.6 42.8816 136.03 42.6078 135.551Z" fill="#5F24FF"/>
</svg>
