<svg width="180" height="213" viewBox="0 0 180 213" fill="none" xmlns="http://www.w3.org/2000/svg">
<path d="M1.54567 105.826L24.4531 77.156C24.6172 56.5296 32.9684 36.8131 47.6695 22.344C62.3707 7.87487 82.2175 -0.16161 102.844 0.00246383C123.47 0.166538 143.187 8.51772 157.656 23.2189C172.125 37.92 180.162 57.7668 179.998 78.3933H172.927C172.927 59.642 165.478 41.6586 152.219 28.3994C138.96 15.1402 120.977 7.69131 102.225 7.69131C83.474 7.69131 65.4907 15.1402 52.2315 28.3994C38.9723 41.6586 31.5233 59.642 31.5233 78.3933C31.5252 79.1918 31.2504 79.9664 30.7456 80.5851L7.06044 110.209H20.918C21.8556 110.209 22.7548 110.582 23.4177 111.245C24.0807 111.908 24.4531 112.807 24.4531 113.744V152.63C24.4615 155.441 25.5815 158.133 27.5686 160.12C29.5557 162.107 32.2483 163.227 35.0584 163.236H56.269C57.2066 163.236 58.1058 163.608 58.7687 164.271C59.4317 164.934 59.8041 165.833 59.8041 166.771V205.657H144.647V141.566C144.648 141.067 144.752 140.574 144.952 140.118C145.153 139.662 145.446 139.252 145.813 138.914C158.473 127.612 167.275 112.629 170.983 96.0688H109.296C106.485 96.0604 103.793 94.9404 101.806 92.9533C99.8187 90.9663 98.6986 88.2736 98.6902 85.4635V78.9943L96.1803 79.3831C94.9186 79.5943 93.6416 79.7007 92.3624 79.7013C87.3558 79.6846 82.47 78.1618 78.3405 75.331C74.2109 72.5002 71.0287 68.4924 69.2075 63.8287L66.839 57.6069C66.6453 57.1164 66.5639 56.5888 66.6006 56.0628C66.6373 55.5368 66.7912 55.0256 67.0511 54.5667C67.3193 54.1137 67.6827 53.7243 68.116 53.4252C68.5493 53.1262 69.0423 52.9246 69.561 52.8345L76.1716 51.774C80.315 51.1428 84.5505 51.5666 88.4866 53.0063C92.4227 54.4461 95.9321 56.8552 98.6902 60.0108V46.5774H94.13C90.5959 46.5949 87.1389 45.5445 84.212 43.5638C81.2851 41.5831 79.0247 38.7645 77.7271 35.4772L74.192 26.6748C73.9847 26.1383 73.9086 25.56 73.9701 24.9881C74.0316 24.4162 74.2289 23.8673 74.5455 23.3871C74.8698 22.9074 75.3069 22.5147 75.8185 22.2434C76.3302 21.9722 76.9006 21.8308 77.4796 21.8317H85.575C89.1091 21.8142 92.566 22.8646 95.493 24.8453C98.4199 26.826 100.68 29.6447 101.978 32.9319L102.225 33.5329L102.473 32.9319C103.77 29.6447 106.031 26.826 108.958 24.8453C111.885 22.8646 115.342 21.8142 118.876 21.8317H126.971C127.55 21.8308 128.12 21.9722 128.632 22.2434C129.144 22.5147 129.581 22.9074 129.905 23.3871C130.222 23.8673 130.419 24.4162 130.481 24.9881C130.542 25.56 130.466 26.1383 130.259 26.6748L126.724 35.4772C125.426 38.7645 123.166 41.5831 120.239 43.5638C117.312 45.5445 113.855 46.5949 110.321 46.5774H105.76V60.0108C108.519 56.8552 112.028 54.4461 115.964 53.0063C119.9 51.5666 124.136 51.1428 128.279 51.774L134.89 52.8345C135.408 52.9246 135.901 53.1262 136.335 53.4252C136.768 53.7243 137.131 54.1137 137.4 54.5667C137.659 55.0256 137.813 55.5368 137.85 56.0628C137.887 56.5888 137.805 57.1164 137.612 57.6069L135.243 63.8287C133.422 68.4924 130.24 72.5002 126.11 75.331C121.981 78.1618 117.095 79.6846 112.088 79.7013C110.809 79.7007 109.532 79.5943 108.27 79.3831L105.76 78.9943V85.4635C105.76 86.4011 106.133 87.3002 106.796 87.9632C107.459 88.6262 108.358 88.9986 109.296 88.9986H175.261C175.771 89.0011 176.274 89.1129 176.738 89.3263C177.201 89.5397 177.614 89.8498 177.947 90.2359C178.275 90.63 178.517 91.0884 178.657 91.5815C178.797 92.0747 178.832 92.5917 178.76 93.0993C175.507 112.299 166 129.885 151.717 143.121V209.192C151.717 210.13 151.344 211.029 150.681 211.692C150.018 212.355 149.119 212.727 148.182 212.727H56.269C55.3315 212.727 54.4323 212.355 53.7693 211.692C53.1064 211.029 52.7339 210.13 52.7339 209.192V170.306H35.0584C30.3706 170.306 25.8748 168.444 22.56 165.129C19.2452 161.814 17.3829 157.318 17.3829 152.63V117.279H7.06044C5.73153 117.282 4.42908 116.908 3.30331 116.202C2.17755 115.496 1.27434 114.486 0.697838 113.288C0.121338 112.091 -0.104958 110.755 0.0450533 109.435C0.195065 108.114 0.715274 106.863 1.54567 105.826ZM96.5338 69.9091C95.0732 66.1345 92.3665 62.9725 88.8624 60.9472C85.3583 58.9219 81.2673 58.155 77.2675 58.7735L75.0051 59.127L75.8181 61.2834C77.2787 65.058 79.9855 68.22 83.4896 70.2453C86.9937 72.2706 91.0847 73.0375 95.0844 72.419L97.3469 72.0655L96.5338 69.9091ZM95.4379 35.5832C94.6582 33.6057 93.2994 31.9098 91.5395 30.7177C89.7796 29.5255 87.7007 28.8926 85.575 28.9019H82.7116L84.267 32.8259C85.0468 34.8034 86.4056 36.4993 88.1655 37.6915C89.9254 38.8836 92.0043 39.5165 94.13 39.5072H96.9934L95.4379 35.5832ZM110.321 39.5072C112.446 39.5165 114.525 38.8836 116.285 37.6915C118.045 36.4993 119.404 34.8034 120.184 32.8259L121.739 28.9019H118.876C116.75 28.8926 114.671 29.5255 112.911 30.7177C111.151 31.9098 109.792 33.6057 109.013 35.5832L107.457 39.5072H110.321ZM109.366 72.419C113.365 73.0296 117.453 72.2592 120.955 70.2349C124.457 68.2106 127.165 65.0533 128.633 61.2834L129.446 59.127L127.183 58.7735C123.183 58.155 119.092 58.9219 115.588 60.9472C112.084 62.9725 109.377 66.1345 107.917 69.9091L107.104 72.0655L109.366 72.419Z" fill="url(#paint0_linear_170_1342)"/>
<defs>
<linearGradient id="paint0_linear_170_1342" x1="90" y1="0" x2="90" y2="212.727" gradientUnits="userSpaceOnUse">
<stop stop-color="#3401FF"/>
<stop offset="1" stop-color="#FBA097"/>
</linearGradient>
</defs>
</svg>
