<svg width="200" height="212" viewBox="0 0 200 212" fill="none" xmlns="http://www.w3.org/2000/svg">
<path fill-rule="evenodd" clip-rule="evenodd" d="M41.9464 57.049H41.9481C45.8473 57.049 49.5869 58.598 52.344 61.3551C55.1016 64.1122 56.6502 67.8519 56.6502 71.751V99.5695C56.6502 101.23 57.3784 102.806 58.6416 103.883L83.5791 125.138C84.6047 126.012 85.9084 126.492 87.2556 126.492H113.123C114.47 126.492 115.774 126.012 116.8 125.138L141.737 103.883C143 102.806 143.728 101.23 143.728 99.5695V71.751C143.728 67.8519 145.277 64.1122 148.034 61.3551C150.792 58.598 154.531 57.049 158.43 57.049H158.432C162.332 57.049 166.071 58.598 168.828 61.3551C171.585 64.1122 173.134 67.8519 173.134 71.751V109.971C173.134 113.648 171.515 117.138 168.707 119.512L135.332 147.728C134.738 148.23 134.396 148.968 134.396 149.745V208.183C134.396 210.068 132.868 211.596 130.983 211.596H69.264C67.3788 211.596 65.8512 210.068 65.8512 208.183V149.884C65.8512 149.111 65.512 148.376 64.9233 147.874L31.6337 119.502C28.8488 117.128 27.2443 113.653 27.2443 109.993V71.751C27.2443 67.8519 28.7933 64.1122 31.5505 61.3551C34.3076 58.598 38.0472 57.049 41.9464 57.049ZM158.432 63.8746H158.43C156.342 63.8746 154.338 64.7044 152.861 66.1817C151.384 67.6586 150.554 69.6619 150.554 71.751V99.5695C150.554 103.229 148.95 106.704 146.165 109.078L121.227 130.332C118.966 132.259 116.093 133.317 113.123 133.317H87.2556C84.2856 133.317 81.4124 132.259 79.1514 130.332L54.2143 109.078C51.429 106.704 49.8245 103.229 49.8245 99.5695V71.751C49.8245 69.6619 48.9947 67.6586 47.5178 66.1817C46.0405 64.7044 44.0372 63.8746 41.9485 63.8746H41.9464C39.8573 63.8746 37.854 64.7044 36.3771 66.1817C34.8997 67.6586 34.07 69.6619 34.07 71.751V109.993C34.07 111.653 34.7978 113.23 36.0614 114.307L69.3506 142.68C71.461 144.478 72.6768 147.112 72.6768 149.884V204.77H127.571V149.745C127.571 146.959 128.798 144.314 130.925 142.516L164.3 114.299C165.574 113.223 166.309 111.639 166.309 109.971V71.751C166.309 69.6619 165.479 67.6586 164.002 66.1817C162.525 64.7044 160.522 63.8746 158.432 63.8746ZM100.189 66.6958C114.066 66.6958 125.387 78.2687 125.387 92.5885C125.387 106.908 114.066 118.481 100.189 118.481C86.3124 118.481 74.9916 106.908 74.9916 92.5885C74.9916 78.2687 86.3124 66.6958 100.189 66.6958ZM100.189 73.5214C90.0196 73.5214 81.8173 82.094 81.8173 92.5885C81.8173 103.083 90.0196 111.655 100.189 111.655C110.359 111.655 118.562 103.083 118.562 92.5885C118.562 82.094 110.359 73.5214 100.189 73.5214ZM2.53028 85.5218C0.71081 85.0342 -0.370632 83.1614 0.116977 81.3419C0.604586 79.5225 2.47738 78.441 4.29685 78.9286L17.1688 82.3777C18.9882 82.8653 20.0697 84.7381 19.5821 86.5576C19.0945 88.3771 17.2217 89.4585 15.4022 88.9709L2.53028 85.5218ZM4.29685 134.828C2.47738 135.316 0.604586 134.234 0.116977 132.415C-0.370632 130.596 0.71081 128.723 2.53028 128.235L15.4022 124.786C17.2217 124.298 19.0945 125.38 19.5821 127.199C20.0697 129.019 18.9882 130.892 17.1688 131.379L4.29685 134.828ZM34.8703 176.645C33.5384 177.977 31.3756 177.977 30.0437 176.645C28.7118 175.314 28.7118 173.151 30.0437 171.819L39.4665 162.396C40.7988 161.064 42.9613 161.064 44.2931 162.396C45.625 163.728 45.625 165.89 44.2931 167.223L34.8703 176.645ZM195.703 78.9286C197.523 78.441 199.395 79.5225 199.883 81.3419C200.371 83.1614 199.289 85.0342 197.47 85.5218L184.598 88.9709C182.778 89.4585 180.906 88.3771 180.418 86.5576C179.93 84.7381 181.012 82.8653 182.831 82.3777L195.703 78.9286ZM197.47 128.235C199.289 128.723 200.371 130.596 199.883 132.415C199.395 134.234 197.523 135.316 195.703 134.828L182.831 131.379C181.012 130.892 179.93 129.019 180.418 127.199C180.906 125.38 182.778 124.298 184.598 124.786L197.47 128.235ZM169.956 171.819C171.288 173.151 171.288 175.314 169.956 176.645C168.624 177.977 166.462 177.977 165.13 176.645L155.707 167.223C154.375 165.89 154.375 163.728 155.707 162.396C157.039 161.064 159.201 161.064 160.533 162.396L169.956 171.819ZM91.9218 12.3323L94.6124 4.05189C95.3974 1.63603 97.649 0 100.189 0C102.73 0 104.981 1.63603 105.766 4.05189L108.457 12.3323H117.164C119.704 12.3323 121.956 13.9683 122.741 16.3842C123.526 18.8005 122.665 21.4471 120.61 22.9407L113.566 28.0582L116.257 36.3386C117.042 38.7545 116.182 41.4015 114.127 42.8946C112.072 44.3878 109.288 44.3878 107.233 42.8946L100.189 37.7771L93.1457 42.8946C91.0904 44.3878 88.3072 44.3878 86.2522 42.8946C84.1969 41.4015 83.3368 38.7545 84.1218 36.3386L86.8124 28.0582L79.7687 22.9407C77.7133 21.4471 76.8533 18.8005 77.6382 16.3842C78.4232 13.9683 80.6748 12.3323 83.2152 12.3323H91.9218ZM86.175 19.158L91.3894 22.9466C93.4448 24.4397 94.3048 27.0868 93.5199 29.5027L91.5281 35.633L96.7424 31.8443C98.7978 30.3512 101.581 30.3512 103.636 31.8443L108.851 35.633L106.859 29.5027C106.074 27.0868 106.934 24.4397 108.989 22.9466L114.204 19.158H107.758C105.218 19.158 102.966 17.5223 102.181 15.1061L100.189 8.97576L98.1976 15.1061C97.4126 17.5223 95.161 19.158 92.6206 19.158H86.175ZM130.651 25.0686L133.341 16.7882C134.126 14.3723 136.377 12.7363 138.918 12.7363C141.459 12.7363 143.71 14.3723 144.495 16.7882L147.185 25.0686H155.892C158.432 25.0686 160.684 26.7046 161.469 29.1204C162.254 31.5367 161.394 34.1834 159.339 35.6769L152.295 40.7945L154.985 49.0749C155.771 51.4907 154.911 54.1378 152.855 55.6309C150.8 57.124 148.017 57.124 145.962 55.6309L138.918 50.5134L131.874 55.6309C129.819 57.124 127.036 57.124 124.981 55.6309C122.925 54.1378 122.065 51.4907 122.851 49.0749L125.541 40.7945L118.497 35.6769C116.442 34.1834 115.582 31.5367 116.367 29.1204C117.152 26.7046 119.404 25.0686 121.944 25.0686H130.651ZM124.903 31.8942L130.118 35.6829C132.174 37.176 133.034 39.8231 132.248 42.239L130.256 48.3693L135.471 44.5806C137.527 43.0875 140.309 43.0875 142.365 44.5806L147.58 48.3693L145.588 42.239C144.803 39.8231 145.662 37.176 147.718 35.6829L152.933 31.8942H146.487C143.947 31.8942 141.695 30.2586 140.91 27.8423L138.918 21.712L136.926 27.8423C136.141 30.2586 133.89 31.8942 131.349 31.8942H124.903ZM53.1934 25.0686L55.8836 16.7882C56.6685 14.3723 58.9201 12.7363 61.4606 12.7363C64.001 12.7363 66.2526 14.3723 67.0376 16.7882L69.7281 25.0686H78.4347C80.9752 25.0686 83.2268 26.7046 84.0117 29.1204C84.7967 31.5367 83.9366 34.1834 81.8817 35.6769L74.8376 40.7945L77.5282 49.0749C78.3131 51.4907 77.4531 54.1378 75.3981 55.6309C73.3428 57.124 70.5596 57.124 68.5042 55.6309L61.4606 50.5134L54.4169 55.6309C52.3615 57.124 49.5788 57.124 47.5234 55.6309C45.468 54.1378 44.608 51.4907 45.3929 49.0749L48.0835 40.7945L41.0399 35.6769C38.9845 34.1834 38.1244 31.5367 38.9094 29.1204C39.6948 26.7046 41.9464 25.0686 44.4868 25.0686H53.1934ZM47.4462 31.8942L52.661 35.6829C54.7159 37.176 55.576 39.8231 54.791 42.239L52.7992 48.3693L58.014 44.5806C60.069 43.0875 62.8521 43.0875 64.9075 44.5806L70.1219 48.3693L68.1301 42.239C67.3451 39.8231 68.2052 37.176 70.2606 35.6829L75.4749 31.8942H69.0294C66.4889 31.8942 64.2377 30.2586 63.4524 27.8423L61.4606 21.712L59.4687 27.8423C58.6838 30.2586 56.4322 31.8942 53.8917 31.8942H47.4462Z" fill="url(#paint0_linear_164_1261)"/>
<defs>
<linearGradient id="paint0_linear_164_1261" x1="100" y1="0" x2="100" y2="211.596" gradientUnits="userSpaceOnUse">
<stop stop-color="#3401FF"/>
<stop offset="1" stop-color="#FBA097"/>
</linearGradient>
</defs>
</svg>
