<svg width="231" height="325" viewBox="0 0 231 325" fill="none" xmlns="http://www.w3.org/2000/svg">
<path d="M15 91.92L5.694 91.92L5.694 89.976L6.99 89.976L6.99 89.922C6.072 89.31 5.442 88.536 5.442 87.06C5.442 85.926 5.928 84.864 6.99 84.45C6.036 83.766 5.442 82.884 5.442 81.534C5.442 79.572 6.306 78.42 8.574 78.42L15 78.42L15 80.472L9.564 80.472C8.088 80.472 7.062 80.562 7.062 82.164C7.062 83.55 7.98 84.144 9.546 84.144L15 84.144L15 86.196L9.024 86.196C7.746 86.196 7.062 86.592 7.062 87.834C7.062 88.896 7.926 89.868 9.474 89.868L15 89.868L15 91.92ZM15 76.2039L5.694 76.2039L5.694 74.1519L15 74.1519L15 76.2039ZM4.092 76.2039L2.148 76.2039L2.148 74.1519L4.092 74.1519L4.092 76.2039ZM15 71.9161L5.694 71.9161L5.694 69.9721L7.062 69.9721L7.098 69.9361C6.072 69.3241 5.442 68.2621 5.442 67.0381C5.442 65.0221 6.522 63.7441 8.61 63.7441L15 63.7441L15 65.7961L9.15 65.7961C7.692 65.8321 7.062 66.4081 7.062 67.6141C7.062 68.9821 8.142 69.8641 9.51 69.8641L15 69.8641L15 71.9161ZM13.632 57.3142C13.632 55.4782 11.958 54.6682 10.338 54.6682C8.736 54.6682 7.062 55.4782 7.062 57.3142C7.062 59.1502 8.736 59.9602 10.338 59.9602C11.958 59.9602 13.632 59.1502 13.632 57.3142ZM15.252 57.3142C15.252 60.3022 13.2 62.0122 10.338 62.0122C7.494 62.0122 5.442 60.3022 5.442 57.3142C5.442 54.3262 7.494 52.6162 10.338 52.6162C13.2 52.6162 15.252 54.3262 15.252 57.3142ZM15 50.9102L5.694 50.9102L5.694 48.9842L7.494 48.9842L7.494 48.9482C6.504 48.7142 5.442 47.4902 5.442 46.2302C5.442 45.7622 5.478 45.6362 5.496 45.4562L7.476 45.4562C7.44 45.7442 7.386 46.0502 7.386 46.3382C7.386 47.7422 8.52 48.8582 10.572 48.8582L15 48.8582L15 50.9102Z" fill="#333333"/>
<path d="M15 323.92L5.694 323.92L5.694 321.976L6.99 321.976L6.99 321.922C6.072 321.31 5.442 320.536 5.442 319.06C5.442 317.926 5.928 316.864 6.99 316.45C6.036 315.766 5.442 314.884 5.442 313.534C5.442 311.572 6.306 310.42 8.574 310.42L15 310.42L15 312.472L9.564 312.472C8.088 312.472 7.062 312.562 7.062 314.164C7.062 315.55 7.98 316.144 9.546 316.144L15 316.144L15 318.196L9.024 318.196C7.746 318.196 7.062 318.592 7.062 319.834C7.062 320.896 7.926 321.868 9.474 321.868L15 321.868L15 323.92ZM11.868 302.516L10.338 302.516C10.752 303.146 10.734 304.136 10.896 305.036C11.04 305.918 11.364 306.71 12.444 306.71C13.362 306.71 13.632 305.54 13.632 304.82C13.632 303.92 13.164 302.516 11.868 302.516ZM8.142 300.464L12.93 300.464C13.434 300.464 13.632 300.356 13.632 299.978C13.632 299.852 13.632 299.69 13.596 299.474L15.018 299.474C15.126 299.78 15.252 300.428 15.252 300.77C15.252 301.598 14.964 302.192 14.118 302.354C14.91 303.164 15.252 304.478 15.252 305.576C15.252 307.25 14.352 308.762 12.534 308.762C10.212 308.762 9.834 306.908 9.636 305.18C9.366 303.704 9.528 302.39 8.322 302.39C7.26 302.39 7.062 303.488 7.062 304.316C7.062 305.468 7.53 306.278 8.538 306.368L8.538 308.42C6.144 308.276 5.442 306.242 5.442 304.19C5.442 302.372 6.18 300.464 8.142 300.464ZM15.702 298.202L5.694 298.202L5.694 296.15L15.792 296.15C17.646 296.15 18.69 296.888 18.69 298.814C18.69 299.21 18.654 299.462 18.618 299.732L16.998 299.732C17.034 299.462 17.07 299.228 17.07 299.03C17.07 298.274 16.62 298.202 15.702 298.202ZM4.092 298.202L2.148 298.202L2.148 296.15L4.092 296.15L4.092 298.202ZM13.632 289.648C13.632 287.812 11.958 287.002 10.338 287.002C8.736 287.002 7.062 287.812 7.062 289.648C7.062 291.484 8.736 292.294 10.338 292.294C11.958 292.294 13.632 291.484 13.632 289.648ZM15.252 289.648C15.252 292.636 13.2 294.346 10.338 294.346C7.494 294.346 5.442 292.636 5.442 289.648C5.442 286.66 7.494 284.95 10.338 284.95C13.2 284.95 15.252 286.66 15.252 289.648ZM15 283.244L5.694 283.244L5.694 281.318L7.494 281.318L7.494 281.282C6.504 281.048 5.442 279.824 5.442 278.564C5.442 278.096 5.478 277.97 5.496 277.79L7.476 277.79C7.44 278.078 7.386 278.384 7.386 278.672C7.386 280.076 8.52 281.192 10.572 281.192L15 281.192L15 283.244Z" fill="#333333"/>
<path d="M31 45L25.2265 55L36.7735 55L31 45ZM31 325L36.7735 315L25.2265 315L31 325ZM30 54L30 316L32 316L32 54L30 54Z" fill="#333333"/>
<g clip-path="url(#clip0_124_2304)">
<rect width="180" height="56" transform="translate(51 45)" fill="#8CE390"/>
<path d="M132.26 74.02C132.26 72.04 132.59 70.27 133.28 68.71C133.97 67.15 134.96 65.95 136.22 65.11C137.48 64.27 138.92 63.82 140.54 63.82C142.13 63.82 143.54 64.27 144.8 65.11C146.06 65.95 147.02 67.15 147.74 68.71C148.43 70.27 148.79 72.04 148.79 74.02V74.98C148.79 77.08 148.43 78.88 147.74 80.41C147.05 81.97 146.09 83.14 144.83 83.95C143.57 84.79 142.16 85.18 140.54 85.18C138.89 85.18 137.45 84.79 136.19 83.95C134.93 83.14 133.97 81.97 133.28 80.41C132.59 78.88 132.26 77.08 132.26 74.98V74.02ZM144.11 68.71C143.21 67.39 142.04 66.73 140.54 66.73C139.04 66.73 137.84 67.39 136.94 68.71C136.04 70.03 135.59 71.83 135.59 74.14V74.86C135.59 77.2 136.04 79 136.94 80.32C137.84 81.64 139.04 82.27 140.54 82.27C142.04 82.27 143.21 81.64 144.11 80.32C145.01 79 145.46 77.2 145.46 74.86V74.14C145.46 71.83 145.01 70.03 144.11 68.71Z" fill="#333333"/>
<rect width="180" height="56" transform="translate(51 101)" fill="#B7E68E"/>
<path d="M143.75 120V141H140.45V126.81C140.15 126.99 139.7 127.08 139.13 127.08H135.68V124.26H138.98C139.46 124.26 139.85 124.08 140.12 123.72C140.36 123.36 140.51 122.91 140.51 122.31V120H143.75Z" fill="#333333"/>
<rect width="180" height="56" transform="translate(51 157)" fill="#E7E991"/>
<path d="M141.12 187.46C142.2 186.56 143.04 185.72 143.58 184.94C144.12 184.16 144.42 183.32 144.42 182.39C144.42 181.22 144.06 180.29 143.34 179.63C142.62 178.97 141.63 178.64 140.4 178.64C139.2 178.64 138.21 179.03 137.49 179.81C136.77 180.59 136.41 181.61 136.41 182.87V183.26H133.08V182.69C133.08 181.37 133.38 180.2 133.98 179.15C134.58 178.13 135.45 177.29 136.56 176.69C137.64 176.09 138.93 175.79 140.4 175.79C142.74 175.79 144.54 176.39 145.86 177.56C147.15 178.73 147.81 180.29 147.81 182.24C147.81 183.68 147.42 184.91 146.7 185.99C145.95 187.07 144.84 188.21 143.37 189.44L137.79 194.09H147.93V197H133.05V194.33L141.12 187.46Z" fill="#333333"/>
<rect width="180" height="56" transform="translate(51 213)" fill="#EBC093"/>
<path d="M147.07 243.82C147.94 244.66 148.39 245.77 148.39 247.15C148.39 248.35 148.06 249.43 147.4 250.33C146.74 251.23 145.84 251.95 144.64 252.43C143.44 252.94 142.06 253.18 140.5 253.18C138.1 253.18 136.18 252.58 134.77 251.35C133.36 250.12 132.67 248.44 132.67 246.28H136C136 247.57 136.45 248.59 137.32 249.31C138.16 250.06 139.3 250.42 140.71 250.42C141.94 250.42 142.96 250.12 143.77 249.46C144.58 248.83 145 247.99 145 246.91C145 245.92 144.58 245.14 143.8 244.57C143.02 244 141.88 243.7 140.44 243.7H138.52V240.94H140.23C141.61 240.94 142.66 240.64 143.38 240.04C144.1 239.44 144.49 238.66 144.49 237.64C144.49 236.71 144.13 235.96 143.41 235.42C142.69 234.88 141.76 234.58 140.62 234.58C139.42 234.58 138.43 234.91 137.65 235.54C136.87 236.17 136.48 237.01 136.48 238.09H133.21C133.21 236.17 133.9 234.64 135.22 233.5C136.54 232.39 138.28 231.82 140.5 231.82C142 231.82 143.32 232.06 144.43 232.51C145.54 232.99 146.38 233.65 146.98 234.49C147.58 235.33 147.88 236.32 147.88 237.4C147.88 238.66 147.49 239.71 146.77 240.52C146.05 241.33 145.06 241.87 143.83 242.14C145.12 242.41 146.2 242.98 147.07 243.82Z" fill="#333333"/>
<rect width="180" height="56" transform="translate(51 269)" fill="#EE9696"/>
<path d="M132.16 301.32L142.15 288H146.17V301.26H149.35V304.14H146.17V309H142.9V304.14H132.16V301.32ZM135.49 301.26H142.9V291.42L135.49 301.26Z" fill="#333333"/>
</g>
<path d="M77.52 15.26C77.52 15.74 77.6067 16.1467 77.78 16.48C77.9533 16.8133 78.18 17.0867 78.46 17.3C78.7533 17.5 79.0933 17.6533 79.48 17.76C79.8667 17.8533 80.2667 17.9 80.68 17.9C80.96 17.9 81.26 17.88 81.58 17.84C81.9 17.7867 82.2 17.6933 82.48 17.56C82.76 17.4267 82.9933 17.2467 83.18 17.02C83.3667 16.78 83.46 16.48 83.46 16.12C83.46 15.7333 83.3333 15.42 83.08 15.18C82.84 14.94 82.52 14.74 82.12 14.58C81.72 14.42 81.2667 14.28 80.76 14.16C80.2533 14.04 79.74 13.9067 79.22 13.76C78.6867 13.6267 78.1667 13.4667 77.66 13.28C77.1533 13.08 76.7 12.8267 76.3 12.52C75.9 12.2133 75.5733 11.8333 75.32 11.38C75.08 10.9133 74.96 10.3533 74.96 9.7C74.96 8.96667 75.1133 8.33333 75.42 7.8C75.74 7.25333 76.1533 6.8 76.66 6.44C77.1667 6.08 77.74 5.81333 78.38 5.64C79.02 5.46667 79.66 5.38 80.3 5.38C81.0467 5.38 81.76 5.46667 82.44 5.64C83.1333 5.8 83.7467 6.06667 84.28 6.44C84.8133 6.81333 85.2333 7.29333 85.54 7.88C85.86 8.45333 86.02 9.15333 86.02 9.98H82.98C82.9533 9.55333 82.86 9.2 82.7 8.92C82.5533 8.64 82.3533 8.42 82.1 8.26C81.8467 8.1 81.5533 7.98667 81.22 7.92C80.9 7.85333 80.5467 7.82 80.16 7.82C79.9067 7.82 79.6533 7.84667 79.4 7.9C79.1467 7.95333 78.9133 8.04667 78.7 8.18C78.5 8.31333 78.3333 8.48 78.2 8.68C78.0667 8.88 78 9.13333 78 9.44C78 9.72 78.0533 9.94667 78.16 10.12C78.2667 10.2933 78.4733 10.4533 78.78 10.6C79.1 10.7467 79.5333 10.8933 80.08 11.04C80.64 11.1867 81.3667 11.3733 82.26 11.6C82.5267 11.6533 82.8933 11.7533 83.36 11.9C83.84 12.0333 84.3133 12.2533 84.78 12.56C85.2467 12.8667 85.6467 13.28 85.98 13.8C86.3267 14.3067 86.5 14.96 86.5 15.76C86.5 16.4133 86.3733 17.02 86.12 17.58C85.8667 18.14 85.4867 18.6267 84.98 19.04C84.4867 19.44 83.8667 19.7533 83.12 19.98C82.3867 20.2067 81.5333 20.32 80.56 20.32C79.7733 20.32 79.0067 20.22 78.26 20.02C77.5267 19.8333 76.8733 19.5333 76.3 19.12C75.74 18.7067 75.2933 18.18 74.96 17.54C74.6267 16.9 74.4667 16.14 74.48 15.26H77.52ZM95.0283 13.72C94.8949 13 94.6549 12.4533 94.3083 12.08C93.9749 11.7067 93.4616 11.52 92.7683 11.52C92.3149 11.52 91.9349 11.6 91.6283 11.76C91.3349 11.9067 91.0949 12.0933 90.9083 12.32C90.7349 12.5467 90.6083 12.7867 90.5283 13.04C90.4616 13.2933 90.4216 13.52 90.4083 13.72H95.0283ZM90.4083 15.52C90.4483 16.44 90.6816 17.1067 91.1083 17.52C91.5349 17.9333 92.1483 18.14 92.9483 18.14C93.5216 18.14 94.0149 18 94.4283 17.72C94.8416 17.4267 95.0949 17.12 95.1883 16.8H97.6883C97.2883 18.04 96.6749 18.9267 95.8483 19.46C95.0216 19.9933 94.0216 20.26 92.8483 20.26C92.0349 20.26 91.3016 20.1333 90.6483 19.88C89.9949 19.6133 89.4416 19.24 88.9883 18.76C88.5349 18.28 88.1816 17.7067 87.9283 17.04C87.6883 16.3733 87.5683 15.64 87.5683 14.84C87.5683 14.0667 87.6949 13.3467 87.9483 12.68C88.2016 12.0133 88.5616 11.44 89.0283 10.96C89.4949 10.4667 90.0483 10.08 90.6883 9.8C91.3416 9.52 92.0616 9.38 92.8483 9.38C93.7283 9.38 94.4949 9.55333 95.1483 9.9C95.8016 10.2333 96.3349 10.6867 96.7483 11.26C97.1749 11.8333 97.4816 12.4867 97.6683 13.22C97.8549 13.9533 97.9216 14.72 97.8683 15.52H90.4083ZM105.273 20H102.113L98.5727 9.66H101.553L103.733 16.72H103.773L105.953 9.66H108.773L105.273 20ZM116.903 13.72C116.77 13 116.53 12.4533 116.183 12.08C115.85 11.7067 115.337 11.52 114.643 11.52C114.19 11.52 113.81 11.6 113.503 11.76C113.21 11.9067 112.97 12.0933 112.783 12.32C112.61 12.5467 112.483 12.7867 112.403 13.04C112.337 13.2933 112.297 13.52 112.283 13.72H116.903ZM112.283 15.52C112.323 16.44 112.557 17.1067 112.983 17.52C113.41 17.9333 114.023 18.14 114.823 18.14C115.397 18.14 115.89 18 116.303 17.72C116.717 17.4267 116.97 17.12 117.063 16.8H119.563C119.163 18.04 118.55 18.9267 117.723 19.46C116.897 19.9933 115.897 20.26 114.723 20.26C113.91 20.26 113.177 20.1333 112.523 19.88C111.87 19.6133 111.317 19.24 110.863 18.76C110.41 18.28 110.057 17.7067 109.803 17.04C109.563 16.3733 109.443 15.64 109.443 14.84C109.443 14.0667 109.57 13.3467 109.823 12.68C110.077 12.0133 110.437 11.44 110.903 10.96C111.37 10.4667 111.923 10.08 112.563 9.8C113.217 9.52 113.937 9.38 114.723 9.38C115.603 9.38 116.37 9.55333 117.023 9.9C117.677 10.2333 118.21 10.6867 118.623 11.26C119.05 11.8333 119.357 12.4867 119.543 13.22C119.73 13.9533 119.797 14.72 119.743 15.52H112.283ZM121.428 9.66H124.128V11.58H124.168C124.301 11.26 124.481 10.9667 124.708 10.7C124.934 10.42 125.194 10.1867 125.488 10C125.781 9.8 126.094 9.64667 126.428 9.54C126.761 9.43333 127.108 9.38 127.468 9.38C127.654 9.38 127.861 9.41333 128.088 9.48V12.12C127.954 12.0933 127.794 12.0733 127.608 12.06C127.421 12.0333 127.241 12.02 127.068 12.02C126.548 12.02 126.108 12.1067 125.748 12.28C125.388 12.4533 125.094 12.6933 124.868 13C124.654 13.2933 124.501 13.64 124.408 14.04C124.314 14.44 124.268 14.8733 124.268 15.34V20H121.428V9.66ZM132.121 8.06H129.281V5.72H132.121V8.06ZM129.281 9.66H132.121V20H129.281V9.66ZM137.957 9.66H140.037V11.56H137.957V16.68C137.957 17.16 138.037 17.48 138.197 17.64C138.357 17.8 138.677 17.88 139.157 17.88C139.317 17.88 139.471 17.8733 139.617 17.86C139.764 17.8467 139.904 17.8267 140.037 17.8V20C139.797 20.04 139.531 20.0667 139.237 20.08C138.944 20.0933 138.657 20.1 138.377 20.1C137.937 20.1 137.517 20.0667 137.117 20C136.731 19.9467 136.384 19.8333 136.077 19.66C135.784 19.4867 135.551 19.24 135.377 18.92C135.204 18.6 135.117 18.18 135.117 17.66V11.56H133.397V9.66H135.117V6.56H137.957V9.66ZM146.489 21.28C146.182 22.12 145.755 22.72 145.209 23.08C144.662 23.44 143.902 23.62 142.929 23.62C142.635 23.62 142.342 23.6067 142.049 23.58C141.769 23.5667 141.482 23.5467 141.189 23.52V21.18C141.455 21.2067 141.729 21.2333 142.009 21.26C142.289 21.2867 142.569 21.2933 142.849 21.28C143.222 21.24 143.495 21.0933 143.669 20.84C143.855 20.5867 143.949 20.3067 143.949 20C143.949 19.7733 143.909 19.56 143.829 19.36L140.209 9.66H143.229L145.569 16.74H145.609L147.869 9.66H150.809L146.489 21.28ZM157.626 5.72H160.766V17.36H167.726V20H157.626V5.72ZM176.142 13.72C176.008 13 175.768 12.4533 175.422 12.08C175.088 11.7067 174.575 11.52 173.882 11.52C173.428 11.52 173.048 11.6 172.742 11.76C172.448 11.9067 172.208 12.0933 172.022 12.32C171.848 12.5467 171.722 12.7867 171.642 13.04C171.575 13.2933 171.535 13.52 171.522 13.72H176.142ZM171.522 15.52C171.562 16.44 171.795 17.1067 172.222 17.52C172.648 17.9333 173.262 18.14 174.062 18.14C174.635 18.14 175.128 18 175.542 17.72C175.955 17.4267 176.208 17.12 176.302 16.8H178.802C178.402 18.04 177.788 18.9267 176.962 19.46C176.135 19.9933 175.135 20.26 173.962 20.26C173.148 20.26 172.415 20.1333 171.762 19.88C171.108 19.6133 170.555 19.24 170.102 18.76C169.648 18.28 169.295 17.7067 169.042 17.04C168.802 16.3733 168.682 15.64 168.682 14.84C168.682 14.0667 168.808 13.3467 169.062 12.68C169.315 12.0133 169.675 11.44 170.142 10.96C170.608 10.4667 171.162 10.08 171.802 9.8C172.455 9.52 173.175 9.38 173.962 9.38C174.842 9.38 175.608 9.55333 176.262 9.9C176.915 10.2333 177.448 10.6867 177.862 11.26C178.288 11.8333 178.595 12.4867 178.782 13.22C178.968 13.9533 179.035 14.72 178.982 15.52H171.522ZM186.386 20H183.226L179.686 9.66H182.666L184.846 16.72H184.886L187.066 9.66H189.886L186.386 20ZM198.017 13.72C197.883 13 197.643 12.4533 197.297 12.08C196.963 11.7067 196.45 11.52 195.757 11.52C195.303 11.52 194.923 11.6 194.617 11.76C194.323 11.9067 194.083 12.0933 193.897 12.32C193.723 12.5467 193.597 12.7867 193.517 13.04C193.45 13.2933 193.41 13.52 193.397 13.72H198.017ZM193.397 15.52C193.437 16.44 193.67 17.1067 194.097 17.52C194.523 17.9333 195.137 18.14 195.937 18.14C196.51 18.14 197.003 18 197.417 17.72C197.83 17.4267 198.083 17.12 198.177 16.8H200.677C200.277 18.04 199.663 18.9267 198.837 19.46C198.01 19.9933 197.01 20.26 195.837 20.26C195.023 20.26 194.29 20.1333 193.637 19.88C192.983 19.6133 192.43 19.24 191.977 18.76C191.523 18.28 191.17 17.7067 190.917 17.04C190.677 16.3733 190.557 15.64 190.557 14.84C190.557 14.0667 190.683 13.3467 190.937 12.68C191.19 12.0133 191.55 11.44 192.017 10.96C192.483 10.4667 193.037 10.08 193.677 9.8C194.33 9.52 195.05 9.38 195.837 9.38C196.717 9.38 197.483 9.55333 198.137 9.9C198.79 10.2333 199.323 10.6867 199.737 11.26C200.163 11.8333 200.47 12.4867 200.657 13.22C200.843 13.9533 200.91 14.72 200.857 15.52H193.397ZM202.621 5.72H205.461V20H202.621V5.72Z" fill="#333333"/>
<defs>
<clipPath id="clip0_124_2304">
<rect x="51" y="45" width="180" height="280" rx="20" fill="white"/>
</clipPath>
</defs>
</svg>
