<svg width="105" height="105" viewBox="0 0 105 105" fill="none" xmlns="http://www.w3.org/2000/svg">
<path d="M30.3 1.90039H80C80.8 1.90039 81.5 2.20039 82.1 2.70039C82.2 2.80039 82.3 2.90039 82.4 3.00039C88.8 9.30039 95.1 15.7004 101.5 22.1004C102.2 22.8004 102.6 23.6004 102.6 24.6004C102.6 47.7004 102.6 70.8004 102.6 93.9004C102.6 94.8004 102.6 95.8004 102.3 96.7004C101.2 100.7 98 103 93.6 103C72.7 103 51.7 103 30.8 103C25.3 103 21.8 99.5004 21.7 93.9004C21.7 90.1004 21.6 86.4004 21.7 82.6004C21.7 81.5004 21.3 81.0004 20.4 80.5004C10.7 75.5004 4.79999 67.6004 2.99999 56.8004C0.799989 42.8004 7.99999 29.4004 20.7 23.2004C21.3 22.9004 21.7 22.3004 21.7 21.6004C21.7 17.7004 21.6 13.7004 21.7 9.80039C21.8 7.40039 22.9 5.50039 24.7 3.90039C25.5 3.20039 26.5 2.70039 27.5 2.30039C28.3 2.10039 29.3 1.90039 30.3 1.90039ZM25 21.3004C38.7 18.0004 50.6 20.9004 59.5 32.0004C68.4 43.1004 68.8 55.3004 62.4 68.1004C62.6 68.2004 62.9 68.4004 63.2 68.7004C68 73.5004 72.9 78.3004 77.7 83.2004C81.4 87.0004 80.6 93.2004 76.1 96.0004C72.7 98.2004 68.5 97.6004 65.4 94.6004C60.7 90.0004 56.1 85.3004 51.4 80.6004C50.7 79.9004 50.2 79.8004 49.3 80.3004C43.4 83.4004 37.2 84.5004 30.6 83.7004C28.7 83.4004 26.9 83.0004 25.1 82.7004C25.1 82.8004 25.1 83.0004 25.1 83.2004C25.1 87.0004 25.1 90.8004 25.1 94.6004C25.1 95.0004 25.1 95.5004 25.2 95.9004C25.8 98.4004 27.8 99.8004 30.7 99.8004C51.6 99.8004 72.5 99.8004 93.4 99.8004C96.7 99.8004 99.3 97.8004 99.3 93.9004C99.2 71.5004 99.3 49.1004 99.3 26.8004C99.3 26.4004 99.3 26.1004 99.3 25.6004C98.8 25.6004 98.4 25.6004 98.1 25.6004C93.7 25.6004 89.2 25.6004 84.8 25.6004C81.2 25.6004 79.2 23.6004 79.2 20.0004C79.2 15.5004 79.2 11.0004 79.2 6.60039C79.2 6.20039 79.2 5.90039 79.2 5.50039C78.9 5.50039 78.7 5.50039 78.4 5.50039C62.4 5.50039 46.5 5.50039 30.5 5.50039C27.3 5.50039 25.3 7.60039 25.2 10.8004C25.2 13.4004 25.2 15.9004 25.2 18.5004C25 19.3004 25 20.3004 25 21.3004ZM34.6 23.4004C18.8 23.3004 5.99999 36.1004 5.89999 52.1004C5.89999 67.8004 18.7 80.6004 34.8 80.7004C50.2 80.8004 63.1 67.8004 63.2 52.1004C63.3 36.3004 50.5 23.4004 34.6 23.4004ZM53.6 78.0004C58.3 82.7004 63 87.5004 67.7 92.2004C67.9 92.4004 68.1 92.5004 68.3 92.7004C70.4 94.3004 73.5 93.9004 75.2 91.8004C76.9 89.7004 76.7 86.9004 74.5 84.8004C70 80.3004 65.5 75.8004 61 71.2004C60.9 71.1004 60.7 70.9004 60.6 70.9004C58.3 73.4004 55.9 75.7004 53.6 78.0004ZM82.3 7.90039C82.3 12.0004 82.3 16.0004 82.3 20.0004C82.3 21.6004 82.9 22.1004 84.4 22.1004C88.2 22.1004 92 22.1004 95.7 22.1004C95.9 22.1004 96.2 22.0004 96.4 22.0004C91.7 17.3004 87.1 12.6004 82.3 7.90039Z" fill="#717C6B" stroke="#717C6B" stroke-width="2.8" stroke-miterlimit="10"/>
<path d="M25 21.3008C25 20.3008 25 19.3008 25 18.3008C25 15.7008 25 13.2008 25 10.6008C25 7.40078 27.1 5.30078 30.3 5.30078C46.3 5.30078 62.2 5.30078 78.2 5.30078C78.4 5.30078 78.6 5.30078 79 5.30078C79 5.70078 79 6.10078 79 6.40078C79 10.9008 79 15.4008 79 19.8008C79 23.4008 81 25.4008 84.6 25.4008C89 25.4008 93.5 25.4008 97.9 25.4008C98.3 25.4008 98.7 25.4008 99.1 25.4008C99.1 25.9008 99.1 26.2008 99.1 26.6008C99.1 49.0008 99.1 71.4008 99.1 93.7008C99.1 97.5008 96.5 99.6008 93.2 99.6008C72.3 99.5008 51.4 99.6008 30.5 99.6008C27.6 99.6008 25.7 98.2008 25 95.7008C25 95.4008 25 94.9008 25 94.5008C25 90.7008 25 86.9008 25 83.1008C25 82.9008 25 82.8008 25 82.6008C26.9 83.0008 28.7 83.4008 30.5 83.6008C37.1 84.5008 43.4 83.4008 49.2 80.2008C50.1 79.7008 50.6 79.8008 51.3 80.5008C55.9 85.2008 60.6 89.8008 65.3 94.5008C68.4 97.5008 72.7 98.1008 76 95.9008C80.5 93.0008 81.3 86.9008 77.6 83.1008C76.8 82.3008 76.1 81.5008 75.3 80.8008C74.5 80.0008 73.8 79.3008 73 78.5008C72.2 77.7008 71.5 77.0008 70.7 76.2008C69.9 75.4008 69.2 74.7008 68.4 73.9008C67.6 73.1008 66.9 72.4008 66.1 71.6008C65.3 70.8008 64.6 70.1008 63.8 69.3008C63.6 69.1008 63.3 68.8008 63.1 68.6008C62.8 68.4008 62.6 68.2008 62.3 68.0008L62.4 67.7008C62.5 67.6008 62.5 67.5008 62.6 67.3008C62.7 67.1008 62.8 66.9008 62.9 66.6008C63.1 66.1008 63.3 65.7008 63.5 65.2008C63.9 64.3008 64.2 63.4008 64.5 62.5008C64.8 61.6008 65.1 60.7008 65.3 59.8008C65.5 58.9008 65.7 58.1008 65.9 57.2008C66.1 56.3008 66.2 55.5008 66.3 54.6008C66.4 53.7008 66.4 52.9008 66.5 52.0008C66.5 51.1008 66.5 50.3008 66.5 49.4008C66.4 48.6008 66.4 47.7008 66.2 46.9008C66.1 46.1008 65.9 45.2008 65.7 44.4008C65.5 43.6008 65.2 42.7008 65 41.9008C64.7 41.1008 64.4 40.2008 64 39.4008C63.6 38.6008 63.2 37.8008 62.8 37.0008C62.3 36.2008 61.9 35.4008 61.3 34.6008C60.8 33.8008 60.2 33.0008 59.6 32.2008C59.5 32.1008 59.4 32.0008 59.3 31.9008C50.6 20.9008 38.7 18.0008 25 21.3008ZM51.9 15.4008C57.8 15.4008 63.7 15.4008 69.6 15.4008C70 15.4008 70.3 15.4008 70.7 15.4008C71.6 15.3008 72.1 14.7008 72.1 13.9008C72.2 13.1008 71.8 12.5008 71 12.2008C70.6 12.1008 70.2 12.1008 69.8 12.1008C57.9 12.1008 45.9 12.1008 34 12.1008C33.6 12.1008 33.1 12.1008 32.7 12.3008C32 12.6008 31.6 13.2008 31.7 13.9008C31.8 14.7008 32.2 15.2008 32.9 15.4008C33.3 15.5008 33.7 15.5008 34.1 15.5008C40.1 15.4008 46 15.4008 51.9 15.4008ZM78.1 32.3008C74.2 32.3008 70.3 32.3008 66.4 32.3008C66 32.3008 65.6 32.3008 65.2 32.4008C64.3 32.5008 63.9 33.1008 63.8 33.9008C63.8 34.7008 64.2 35.4008 65.1 35.5008C65.5 35.6008 65.8 35.6008 66.2 35.6008C74.2 35.6008 82.1 35.6008 90.1 35.6008C90.5 35.6008 91 35.6008 91.4 35.5008C92.1 35.3008 92.5 34.7008 92.5 33.9008C92.5 33.1008 92 32.5008 91.3 32.3008C90.9 32.2008 90.5 32.2008 90.1 32.2008C86 32.3008 82 32.3008 78.1 32.3008ZM79.7 66.0008C82.9 66.0008 86.1 66.0008 89.4 66.0008C89.9 66.0008 90.3 66.0008 90.8 66.0008C91.7 65.9008 92.4 65.3008 92.4 64.4008C92.4 63.5008 91.9 62.9008 91 62.7008C90.7 62.6008 90.3 62.6008 90 62.6008C83.2 62.6008 76.3 62.6008 69.5 62.6008C69.1 62.6008 68.6 62.6008 68.2 62.8008C67.4 63.1008 67 63.7008 67.1 64.5008C67.2 65.3008 67.6 65.8008 68.4 66.0008C68.8 66.1008 69.1 66.0008 69.5 66.0008C73 66.0008 76.3 66.0008 79.7 66.0008ZM80.5 55.9008C82.7 55.9008 84.8 55.9008 87 55.9008C88.2 55.9008 89.4 55.9008 90.5 55.9008C91.5 55.9008 92.2 55.2008 92.3 54.3008C92.3 53.4008 91.6 52.6008 90.5 52.6008C90.2 52.6008 90 52.6008 89.7 52.6008C84.4 52.6008 79.1 52.6008 73.7 52.6008C72.6 52.6008 71.5 52.6008 70.5 52.6008C69.3 52.6008 68.5 53.6008 68.8 54.7008C69.1 55.6008 69.8 55.9008 70.7 55.9008C74 55.9008 77.3 55.9008 80.5 55.9008ZM80.6 42.4008C78.8 42.4008 77 42.4008 75.2 42.4008C73.7 42.4008 72.2 42.4008 70.7 42.4008C69.6 42.4008 68.9 43.1008 68.9 44.0008C68.9 45.0008 69.6 45.6008 70.7 45.7008C70.9 45.7008 71 45.7008 71.2 45.7008C77.5 45.7008 83.9 45.7008 90.2 45.7008C90.6 45.7008 91.1 45.7008 91.4 45.5008C92.5 45.1008 92.8 43.6008 91.8 42.8008C91.4 42.5008 90.8 42.3008 90.3 42.3008C87.1 42.4008 83.8 42.4008 80.6 42.4008ZM95.7 88.2008C95.7 87.1008 95.7 86.0008 95.7 84.8008C95.7 84.7008 95.7 84.7008 95.7 84.6008C95.4 84.1008 95.3 83.4008 94.9 83.0008C93.8 82.2008 92.4 83.1008 92.4 84.6008C92.4 86.6008 92.4 88.6008 92.4 90.6008C92.4 92.2008 91.8 92.8008 90.2 92.8008C88.2 92.8008 86.3 92.8008 84.3 92.8008C83.1 92.8008 82.4 93.5008 82.4 94.4008C82.4 95.4008 83.1 96.1008 84.3 96.1008C86.5 96.1008 88.7 96.2008 90.9 96.1008C93.8 96.0008 95.8 93.9008 95.9 91.0008C95.8 90.2008 95.7 89.2008 95.7 88.2008ZM83.1 76.1008C84.9 76.1008 86.7 76.1008 88.5 76.1008C89.3 76.1008 90.1 76.1008 91 76.0008C91.9 75.9008 92.3 75.3008 92.3 74.4008C92.3 73.6008 91.9 72.9008 91 72.8008C90.6 72.7008 90.2 72.7008 89.8 72.7008C86.8 72.7008 83.9 72.7008 80.9 72.7008C79.3 72.7008 77.6 72.7008 76 72.7008C75.4 72.7008 74.7 72.9008 74.3 73.3008C74 73.7008 73.9 74.4008 74 75.0008C74.1 75.8008 74.9 76.1008 75.7 76.1008C78.2 76.1008 80.6 76.1008 83.1 76.1008ZM63.7 25.5008C65.9 25.5008 68 25.5008 70.2 25.5008C71.4 25.5008 72.1 24.8008 72.1 23.8008C72.1 22.9008 71.4 22.2008 70.3 22.1008C70.1 22.1008 69.9 22.1008 69.7 22.1008C65.7 22.1008 61.7 22.1008 57.8 22.1008C57.4 22.1008 57 22.1008 56.6 22.2008C55.7 22.4008 55.3 23.0008 55.4 23.8008C55.4 24.6008 55.9 25.2008 56.8 25.3008C57.2 25.4008 57.5 25.4008 57.9 25.4008C59.8 25.5008 61.7 25.5008 63.7 25.5008Z" stroke="#717C6B" stroke-width="0.843" stroke-miterlimit="10"/>
<path d="M34.6 23.4C50.5 23.5 63.3 36.4 63.2 52.1C63.1 67.8 50.2 80.7 34.8 80.7C18.7 80.6 5.89999 67.8 5.89999 52.1C5.99999 36.1 18.8 23.3 34.6 23.4ZM9.29999 51.9C9.19999 65.3 19.8 76.9 34 77.3C47.5 77.7 59.4 66.6 59.8 53.1C60.2 38.8 49.4 27.2 35.4 26.8C21.5 26.3 9.49999 37.2 9.29999 51.9Z" stroke="#717C6B" stroke-width="0.843" stroke-miterlimit="10"/>
<path d="M53.6 78.0004C55.9 75.7004 58.3 73.3004 60.7 70.9004C60.7 70.9004 60.9 71.1004 61.1 71.2004C65.6 75.7004 70.1 80.2004 74.6 84.8004C76.7 86.9004 77 89.7004 75.3 91.8004C73.6 93.9004 70.5 94.3004 68.4 92.7004C68.2 92.6004 68 92.4004 67.8 92.2004C63 87.5004 58.3 82.7004 53.6 78.0004Z" stroke="#717C6B" stroke-width="0.843" stroke-miterlimit="10"/>
<path d="M82.3 7.90039C87.1 12.7004 91.7 17.3004 96.5 22.1004C96.3 22.1004 96.1 22.2004 95.8 22.2004C92 22.2004 88.2 22.2004 84.5 22.2004C82.9 22.2004 82.4 21.6004 82.4 20.1004C82.3 16.0004 82.3 12.0004 82.3 7.90039Z" stroke="#717C6B" stroke-width="0.843" stroke-miterlimit="10"/>
<path d="M51.9 15.4C46 15.4 40.1 15.4 34.1 15.4C33.7 15.4 33.3 15.4 32.9 15.3C32.1 15.1 31.7 14.6 31.7 13.8C31.6 13 32 12.4 32.7 12.2C33.1 12.1 33.5 12 34 12C45.9 12 57.9 12 69.8 12C70.2 12 70.6 12 71 12.1C71.8 12.4 72.2 13 72.1 13.8C72 14.6 71.6 15.2 70.7 15.3C70.3 15.3 70 15.3 69.6 15.3C63.7 15.4 57.8 15.4 51.9 15.4Z" fill="#717C6B" stroke="#717C6B" stroke-width="0.843" stroke-miterlimit="10"/>
<path d="M78.1 32.3008C82 32.3008 86 32.3008 89.9 32.3008C90.3 32.3008 90.7 32.3008 91.1 32.4008C91.9 32.6008 92.3 33.2008 92.3 34.0008C92.3 34.8008 91.9 35.3008 91.2 35.6008C90.8 35.7008 90.4 35.7008 89.9 35.7008C81.9 35.7008 74 35.7008 66 35.7008C65.6 35.7008 65.3 35.7008 64.9 35.6008C64 35.4008 63.6 34.8008 63.6 34.0008C63.6 33.2008 64.1 32.6008 65 32.5008C65.4 32.4008 65.8 32.4008 66.2 32.4008C70.2 32.3008 74.2 32.3008 78.1 32.3008Z" fill="#717C6B" stroke="#717C6B" stroke-width="0.843" stroke-miterlimit="10"/>
<path d="M79.7 66.0006C76.3 66.0006 72.9 66.0006 69.5 66.0006C69.1 66.0006 68.8 66.0006 68.4 66.0006C67.6 65.9006 67.1 65.3006 67.1 64.5006C67 63.7006 67.4 63.1006 68.2 62.8006C68.6 62.7006 69 62.6006 69.5 62.6006C76.3 62.6006 83.2 62.6006 90 62.6006C90.3 62.6006 90.7 62.6006 91 62.7006C91.9 62.9006 92.4 63.5006 92.4 64.4006C92.4 65.3006 91.8 65.9006 90.8 66.0006C90.3 66.0006 89.9 66.0006 89.4 66.0006C86.2 66.0006 83 66.0006 79.7 66.0006Z" fill="#717C6B" stroke="#717C6B" stroke-width="0.843" stroke-miterlimit="10"/>
<path d="M80.5 55.9006C77.3 55.9006 74 55.9006 70.7 55.9006C69.8 55.9006 69.1 55.6006 68.8 54.7006C68.5 53.6006 69.3 52.6006 70.5 52.6006C71.6 52.6006 72.7 52.6006 73.7 52.6006C79 52.6006 84.3 52.6006 89.7 52.6006C90 52.6006 90.2 52.6006 90.5 52.6006C91.6 52.7006 92.3 53.4006 92.3 54.3006C92.3 55.2006 91.6 55.9006 90.5 55.9006C89.3 55.9006 88.1 55.9006 87 55.9006C84.9 55.9006 82.7 55.9006 80.5 55.9006Z" fill="#717C6B" stroke="#717C6B" stroke-width="0.843" stroke-miterlimit="10"/>
<path d="M80.6 42.4004C83.8 42.4004 87 42.4004 90.3 42.4004C90.8 42.4004 91.4 42.5004 91.8 42.9004C92.7 43.6004 92.5 45.1004 91.4 45.6004C91 45.7004 90.6 45.8004 90.2 45.8004C83.9 45.8004 77.5 45.8004 71.2 45.8004C71 45.8004 70.9 45.8004 70.7 45.8004C69.6 45.7004 68.9 45.0004 68.9 44.1004C68.9 43.1004 69.6 42.5004 70.7 42.5004C72.2 42.5004 73.7 42.5004 75.2 42.5004C77 42.4004 78.8 42.4004 80.6 42.4004Z" fill="#717C6B" stroke="#717C6B" stroke-width="0.843" stroke-miterlimit="10"/>
<path d="M95.8 88.2006C95.8 89.2006 95.8 90.2006 95.8 91.2006C95.7 94.1006 93.8 96.2006 90.8 96.3006C88.6 96.4006 86.4 96.3006 84.2 96.3006C83 96.3006 82.3 95.6006 82.3 94.6006C82.3 93.6006 83 93.0006 84.2 93.0006C86.2 93.0006 88.1 93.0006 90.1 93.0006C91.7 93.0006 92.3 92.4006 92.3 90.8006C92.3 88.8006 92.3 86.8006 92.3 84.8006C92.3 84.0006 92.8 83.1006 93.6 82.9006C94.3 82.7006 95.1 83.3006 95.4 83.9006C95.6 84.3006 95.6 84.9006 95.7 85.4006C95.7 85.9006 95.7 86.4006 95.7 86.9006C95.7 87.3006 95.8 87.8006 95.8 88.2006Z" fill="#717C6B" stroke="#717C6B" stroke-width="0.843" stroke-miterlimit="10"/>
<path d="M83.1 76.1007C80.6 76.1007 78.2 76.1007 75.7 76.1007C74.9 76.1007 74.2 75.8007 74 75.0007C73.9 74.5007 74 73.7007 74.4 73.3007C74.8 72.9007 75.5 72.8007 76.1 72.7007C77.7 72.6007 79.4 72.7007 81 72.7007C84 72.7007 86.9 72.7007 89.9 72.7007C90.3 72.7007 90.7 72.7007 91.1 72.8007C92 73.0007 92.4 73.6007 92.4 74.4007C92.4 75.2007 91.9 75.9007 91.1 76.0007C90.3 76.1007 89.5 76.1007 88.6 76.1007C86.7 76.1007 84.9 76.1007 83.1 76.1007Z" fill="#717C6B" stroke="#717C6B" stroke-width="0.843" stroke-miterlimit="10"/>
<path d="M63.7 25.5002C61.7 25.5002 59.8 25.5002 57.8 25.5002C57.4 25.5002 57.1 25.5002 56.7 25.4002C55.8 25.3002 55.4 24.7002 55.3 23.9002C55.3 23.1002 55.7 22.4002 56.5 22.3002C56.9 22.2002 57.3 22.2002 57.7 22.2002C61.7 22.2002 65.7 22.2002 69.6 22.2002C69.8 22.2002 70 22.2002 70.2 22.2002C71.3 22.3002 72 22.9002 72 23.9002C72 24.9002 71.3 25.6002 70.1 25.6002C68.1 25.5002 65.9 25.5002 63.7 25.5002Z" fill="#717C6B" stroke="#717C6B" stroke-width="0.843" stroke-miterlimit="10"/>
<path d="M9.29999 51.9002C9.39999 37.1002 21.5 26.3002 35.4 26.7002C49.4 27.1002 60.2 38.7002 59.8 53.0002C59.4 66.5002 47.6 77.6002 34 77.2002C19.8 76.9002 9.19999 65.4002 9.29999 51.9002ZM34.6 73.9002C46.8 73.8002 56.5 64.1002 56.5 52.1002C56.4 39.7002 46.7 30.1002 34.4 30.2002C22.3 30.3002 12.7 40.2002 12.8 52.6002C12.8 64.2002 22.8 74.0002 34.6 73.9002Z" fill="#717C6B" stroke="#717C6B" stroke-width="0.843" stroke-miterlimit="10"/>
<path d="M34.6 73.9C22.8 74 12.8 64.2 12.7 52.6C12.6 40.2 22.2 30.3 34.3 30.2C46.6 30.1 56.4 39.7 56.4 52.1C56.5 64.1 46.7 73.8 34.6 73.9Z" stroke="#717C6B" stroke-width="0.843" stroke-miterlimit="10"/>
<path d="M30.2 62.2007C30.4 62.1007 30.5 62.0007 30.6 61.9007C34.3 59.4007 37.2 56.2007 39.5 52.3007C39.5 52.2007 39.6 52.1007 39.6 52.0007C39.7 51.7007 39.6 51.4007 39.3 51.2007C39 51.1007 38.7 51.1007 38.5 51.4007C38.4 51.5007 38.3 51.7007 38.2 51.8007C35.2 56.7007 31.1 60.4007 26 63.0007C25.4 63.3007 24.7 63.5007 24.1 63.8007C23.7 64.0007 23.6 64.3007 23.7 64.6007C23.8 64.9007 24.2 65.1007 24.6 64.9007H24.7C25.9 64.3007 27.2 63.7007 28.4 63.1007C28.6 63.0007 28.8 63.0007 29 63.0007C31.1 63.7007 33.3 63.8007 35.4 63.5007C41.7 62.6007 46.5 57.4007 47.2 51.7007C47.5 49.0007 47.5 46.3007 47.1 43.6007C47 42.8007 46.3 42.3007 45.5 42.3007C41 42.4007 37 43.8007 33.5 46.6007C33.4 46.7007 33.3 46.7007 33.2 46.8007C33.1 46.4007 33.1 46.0007 33 45.7007C32.4 43.0007 30.9 41.0007 28.6 39.5007C27.9 39.1007 27.2 39.2007 26.7 39.7007C24.7 41.9007 23.5 44.4007 23.3 47.4007C23 51.0007 24.1 54.1007 26.5 56.8007C26.6 57.0007 26.7 57.1007 26.6 57.3007C26.5 57.8007 26.4 58.3007 26.3 58.8007C26.3 58.9007 26.3 59.1007 26.3 59.2007C26.2 59.7007 26.4 60.0007 26.8 60.0007C27.2 60.1007 27.5 59.8007 27.5 59.3007C27.7 57.5007 28.2 55.8007 29 54.2007C32.4 47.5007 37.8 43.9007 45.3 43.4007C45.8 43.4007 45.8 43.4007 45.9 43.9007C46 45.2007 46.2 46.5007 46.2 47.8007C46.2 49.3007 46.2 50.8007 45.9 52.3007C44.7 58.0007 39.5 62.2007 33.7 62.4007C32.6 62.7007 31.4 62.6007 30.2 62.2007Z" stroke="#717C6B" stroke-width="1.2644" stroke-miterlimit="10" stroke-linecap="round"/>
<path d="M30.2 62.1999C31.4 62.4999 32.6 62.5999 33.8 62.5999C39.6 62.4999 44.8 58.1999 46 52.4999C46.3 50.9999 46.3 49.4999 46.3 47.9999C46.3 46.6999 46.1 45.3999 46 44.0999C46 43.5999 45.9 43.5999 45.4 43.5999C37.9 43.9999 32.5 47.6999 29.1 54.3999C28.3 55.9999 27.8 57.6999 27.6 59.4999C27.5 59.9999 27.3 60.1999 26.9 60.1999C26.5 60.0999 26.3 59.7999 26.4 59.3999C26.4 59.2999 26.4 59.0999 26.4 58.9999C26.5 58.4999 26.6 57.9999 26.7 57.4999C26.7 57.2999 26.7 57.1999 26.6 56.9999C24.2 54.2999 23.1 51.1999 23.4 47.5999C23.6 44.5999 24.7 42.0999 26.8 39.8999C27.3 39.3999 28 39.2999 28.7 39.6999C31 41.0999 32.5 43.1999 33.1 45.8999C33.2 46.2999 33.2 46.5999 33.3 46.9999C33.4 46.8999 33.5 46.8999 33.6 46.7999C37.1 43.9999 41.1 42.5999 45.6 42.4999C46.4 42.4999 47.1 42.9999 47.2 43.7999C47.6 46.4999 47.7 49.1999 47.3 51.8999C46.6 57.5999 41.8 62.7999 35.5 63.6999C33.3 63.9999 31.2 63.8999 29.1 63.1999C28.9 63.0999 28.7 63.1999 28.5 63.2999C27.3 63.8999 26.1 64.4999 24.8 65.0999H24.7C24.3 65.1999 24 65.0999 23.8 64.7999C23.7 64.4999 23.8 64.1999 24.2 63.9999C24.8 63.6999 25.5 63.4999 26.1 63.1999C31.3 60.6999 35.4 56.9999 38.3 51.9999C38.4 51.8999 38.5 51.6999 38.6 51.5999C38.8 51.2999 39.1 51.2999 39.4 51.3999C39.7 51.4999 39.8 51.8999 39.7 52.1999C39.7 52.2999 39.6 52.3999 39.6 52.4999C37.3 56.3999 34.4 59.4999 30.7 62.0999C30.5 61.9999 30.4 62.0999 30.2 62.1999ZM29.6 50.9999C30.4 50.0999 31.2 49.1999 32 48.1999C32.1 48.0999 32.1 47.8999 32.1 47.7999C32 44.7999 30.8 42.4999 28.3 40.7999C28 40.5999 27.8 40.5999 27.6 40.8999C24.6 44.1999 23.8 49.0999 25.7 53.1999C26.1 54.0999 26.6 54.9999 27.3 55.7999C27.6 54.9999 28 54.1999 28.3 53.4999C28.3 53.4999 28.3 53.3999 28.3 53.2999C28.3 51.9999 28.3 50.7999 28.2 49.4999C28.1 48.1999 27.8 46.9999 27.6 45.6999C27.5 45.2999 27.7 44.9999 28.1 44.8999C28.5 44.7999 28.8 44.9999 28.8 45.3999C28.9 45.9999 29.1 46.6999 29.2 47.2999C29.4 48.5999 29.5 49.7999 29.6 50.9999Z" fill="#717C6B" stroke="#717C6B" stroke-width="1.5" stroke-miterlimit="10" stroke-linecap="round"/>
<path d="M29.6 51.0001C29.5 49.8001 29.3 48.6001 29.2 47.4001C29.1 46.8001 29 46.1001 28.8 45.5001C28.7 45.1001 28.4 44.9001 28.1 45.0001C27.7 45.1001 27.6 45.4001 27.6 45.8001C27.8 47.1001 28.1 48.3001 28.2 49.6001C28.3 50.9001 28.2 52.1001 28.3 53.4001C28.3 53.5001 28.3 53.5001 28.3 53.6001C28 54.4001 27.6 55.1001 27.3 55.9001C26.6 55.1001 26.1 54.3001 25.7 53.3001C23.8 49.2001 24.6 44.3001 27.6 41.0001C27.8 40.7001 28 40.7001 28.3 40.9001C30.8 42.6001 32.1 44.9001 32.1 47.9001C32.1 48.0001 32.1 48.2001 32 48.3001C31.2 49.1001 30.4 50.1001 29.6 51.0001Z" stroke="#717C6B" stroke-width="1.2644" stroke-miterlimit="10" stroke-linecap="round"/>
</svg>
