<svg width="100" height="100" viewBox="0 0 100 100" fill="none" xmlns="http://www.w3.org/2000/svg">
<path d="M100 45.393C99.8438 45.9917 99.7137 46.5903 99.5315 47.1629C98.3863 51.0151 95.9396 53.722 92.2697 55.3358C92.0875 55.4139 91.9053 55.4659 91.7231 55.544C90.2915 56.1426 90.0573 57.2619 91.0984 58.3811C92.1135 59.4222 93.1807 60.4373 94.1958 61.5044C98.6986 66.0854 97.3452 72.8006 91.4368 75.2993C89.9792 75.924 88.4956 76.5487 87.038 77.1473C85.2421 77.9021 84.7996 78.9953 85.5284 80.8173C86.127 82.3269 86.8038 83.8105 87.3503 85.3202C89.3545 90.8381 86.6476 96.8766 81.2598 99.1151C75.898 101.327 69.7293 98.9589 67.2567 93.7012C66.632 92.3738 66.1114 91.0203 65.5388 89.6669C64.7059 87.6887 63.3524 87.1161 61.4003 87.949C59.8907 88.5737 58.4071 89.2244 56.8975 89.8491C50.3123 92.556 43.7533 88.2093 43.7272 81.0776C43.7272 80.1145 43.7012 79.1255 43.7272 78.1624C43.7793 76.4185 45.1588 75.0651 46.8766 75.0911C48.5424 75.0911 49.8959 76.4185 49.974 78.1104C50.026 79.1515 49.974 80.1926 50 81.2337C50.0521 83.6023 52.1343 85.0338 54.3207 84.1749C56.2207 83.4461 58.0687 82.5612 59.9948 81.8584C64.3675 80.2967 68.9745 82.2488 70.9266 86.4654C71.6033 87.8969 72.1499 89.4066 72.8006 90.8641C73.7116 92.8943 75.5857 93.9094 77.772 93.6231C79.7762 93.3629 81.416 91.8272 81.6762 89.6929C81.7803 88.834 81.5981 87.8709 81.3118 87.038C80.8433 85.5804 80.1666 84.227 79.594 82.7954C77.798 78.2405 79.7762 73.4774 84.279 71.5513C85.9188 70.8485 87.5846 70.1718 89.2244 69.469C90.8381 68.7663 91.0463 67.6991 89.823 66.4758C87.4805 64.1333 85.0859 61.8168 82.7954 59.4222C79.9584 56.429 81.1036 51.6658 84.9558 50.3904C85.6846 50.1562 86.4914 50.0781 87.2462 50.0781C91.0203 50.026 93.7012 47.3712 93.7012 43.5971C93.7012 33.342 93.7012 23.113 93.7012 12.8579C93.7012 9.03176 91.0203 6.35086 87.1942 6.35086C62.3634 6.35086 37.5586 6.35086 12.7278 6.35086C8.95368 6.35086 6.24675 9.03176 6.24675 12.7798C6.24675 23.0609 6.24675 33.342 6.24675 43.6231C6.24675 47.3972 8.92765 50.0521 12.7278 50.0521C21.8897 50.0521 31.0776 50.0521 40.2395 50.0521C42.4779 50.0521 43.7012 48.8027 43.7272 46.5122C43.7272 41.7751 43.7012 37.012 43.7272 32.2749C43.7793 27.1994 47.9178 23.2952 52.9672 23.5294C55.0495 23.6075 56.9235 24.3623 58.4331 25.7939C60.7496 28.0323 63.0141 30.3228 65.3045 32.5872C68.6361 35.9188 71.9677 39.2504 75.3254 42.582C76.2364 43.493 76.7309 44.5341 76.4446 45.8355C75.898 48.3863 72.8787 49.3493 70.9526 47.5534C69.6773 46.3821 68.506 45.1328 67.2827 43.9094C62.988 39.6148 58.6674 35.2941 54.3727 30.9995C54.1385 30.7652 53.9042 30.531 53.67 30.3228C52.9672 29.7241 52.1864 29.5419 51.3274 29.9063C50.4425 30.2967 50 31.0255 50 31.9886C50 34.9037 50 37.8449 50 40.76C50 43.2327 50 45.7054 50 48.178C49.974 52.8631 46.6163 56.2468 41.9313 56.2468C32.1707 56.2468 22.4102 56.2728 12.6497 56.2468C6.35085 56.2468 1.30141 51.9521 0.1822 45.7574C0.156172 45.6013 0.0780843 45.4711 0 45.3149C0 33.8626 0 22.4102 0 10.9578C0.0520562 10.7756 0.156172 10.5934 0.1822 10.4112C1.1973 5.36179 4.19052 2.08225 9.05778 0.494534C9.65643 0.286309 10.3071 0.182197 10.9318 0C36.9599 0 62.988 0 89.0162 0C89.1983 0.0520562 89.3805 0.156168 89.5627 0.182196C93.3628 0.884955 96.3301 2.86309 98.2041 6.22072C99.011 7.65227 99.3753 9.34409 99.948 10.9318C100 22.4883 100 33.9407 100 45.393Z" fill="#717C6B"/>
<path d="M46.9287 68.8184C45.2369 68.8444 43.8053 67.4649 43.7793 65.7731C43.7533 64.0292 45.1588 62.5977 46.9027 62.5977C48.5945 62.5977 50 64.0032 50.026 65.695C50.026 67.3608 48.6466 68.7923 46.9287 68.8184Z" fill="#717C6B"/>
</svg>
