<svg width="100" height="100" viewBox="0 0 100 100" fill="none" xmlns="http://www.w3.org/2000/svg">
<path d="M0.170581 52.8268C-0.0974504 48.4652 0.194935 44.0793 1.07213 39.7908C2.70468 31.7986 6.2622 24.3181 11.501 18.0803C12.4269 16.9594 13.4016 15.8873 14.425 14.8639C20.2486 8.96719 27.4367 4.5325 35.3801 2.16895C44.5663 -0.53573 53.7768 -0.340807 63.0117 1.77908C69.8587 3.33853 76.462 7.0666 81.7983 11.5257C87.1345 15.9847 91.5205 21.5647 94.5907 27.7781C97.7096 34.0647 99.4883 40.9847 99.7807 48.0023C99.9269 51.7547 99.6345 55.5315 98.9279 59.2352C96.8567 70.0052 91.8129 79.1914 83.7232 86.55C72.1735 97.0764 58.5039 101.267 43.0312 99.2937C33.1628 98.051 24.4883 94.0062 17.0322 87.4272C10.8675 81.9935 5.87233 75.0978 3.11892 67.3249C1.48636 62.6465 0.487345 57.7489 0.170581 52.8268ZM38.0848 54.7762C26.7057 46.589 26.7057 32.0179 33.9669 23.7333C41.6667 14.937 54.7758 13.8648 63.4259 21.321C67.6657 24.976 70.2485 29.5812 70.7602 35.1611C71.5156 43.3239 68.3236 49.8054 61.769 54.7518C72.8314 59.2352 79.922 67.1543 83.1871 78.5822C97.4659 62.6222 98.8061 34.9175 79.4835 17.3249C60.2827 -0.145863 30.7992 2.55881 14.8879 23.2703C-0.0730933 42.7879 5.65303 66.9838 16.6423 78.4847C19.9074 67.1056 27.0468 59.2596 38.0848 54.7762ZM50.731 93.9575C51.7788 93.86 53.655 93.7869 55.5312 93.5432C62.9873 92.6173 69.7612 89.8882 75.8285 85.4779C78.387 83.6017 78.3626 83.553 77.5829 80.4097C74.001 65.7411 59.9903 56.4818 45.1267 58.9916C33.0166 61.0384 23.4406 70.9068 21.7836 83.1144C21.7349 83.4068 21.9542 83.8697 22.1979 84.0403C30.2875 90.5705 39.5224 93.8113 50.731 93.9575ZM49.8782 52.5101C58.1628 52.5588 64.9854 45.8337 65.0829 37.4516C65.2047 29.2157 58.3821 22.2957 50.0487 22.1982C41.7154 22.1007 34.8684 28.8502 34.7466 37.2567C34.6491 45.5656 41.4718 52.4613 49.8782 52.5101Z" fill="#717C6B"/>
</svg>
